<svg width="18" height="10" viewBox="0 0 18 10" fill="none" xmlns="http://www.w3.org/2000/svg">
<g opacity="0.3">
<path d="M0.43382 1.15801C0 1.8152 0 2.73006 0 4.5598C0 6.38953 0 7.30439 0.43382 7.96159C0.621625 8.24609 0.862952 8.49037 1.14402 8.68047C1.79328 9.11959 2.6971 9.11959 4.50474 9.11959H11.5836C13.3913 9.11959 14.2951 9.11959 14.9443 8.68047C15.2254 8.49037 15.4667 8.24609 15.6545 7.96159C16.0884 7.30439 16.0884 6.38953 16.0884 4.5598C16.0884 2.73006 16.0884 1.8152 15.6545 1.15801C15.4667 0.8735 15.2254 0.629223 14.9443 0.439122C14.2951 0 13.3913 0 11.5836 0H4.50474C2.6971 0 1.79328 0 1.14402 0.439122C0.862952 0.629223 0.621625 0.8735 0.43382 1.15801Z" fill="#0B0D0F"/>
<path d="M17.5878 4.39695C17.5878 4.96571 17.2505 5.47907 16.7319 5.69975V3.09415C17.2505 3.31483 17.5878 3.82819 17.5878 4.39695Z" fill="#0B0D0F"/>
</g>
<path d="M0 4.5598C0 2.73006 0 1.8152 0.439123 1.158C0.629223 0.873499 0.873499 0.629223 1.158 0.439123C1.8152 0 2.73006 0 4.5598 0H6.43534V9.11959H4.5598C2.73007 9.11959 1.8152 9.11959 1.158 8.68047C0.873499 8.49037 0.629223 8.24609 0.439123 7.96159C0 7.30439 0 6.38953 0 4.5598Z" fill="#F7CE45"/>
<path d="M5.78988 4.77831V4.02608H6.35318C6.88149 4.02608 7.22436 3.73919 7.22436 3.32634C7.22436 2.91349 6.94096 2.65108 6.43715 2.65108C5.94033 2.65108 5.59395 2.91698 5.56247 3.35433H4.59332C4.6458 2.43066 5.38053 1.83938 6.43715 1.83938C7.50426 1.83938 8.225 2.36768 8.225 3.17589C8.225 3.81966 7.76666 4.23601 7.17188 4.35846V4.37945C7.92061 4.44943 8.41043 4.89377 8.41043 5.58651C8.41043 6.50318 7.61622 7.11196 6.44414 7.11196C5.30356 7.11196 4.52684 6.49618 4.48136 5.56902H5.48899C5.52398 5.98187 5.88785 6.26177 6.44414 6.26177C6.97245 6.26177 7.33632 5.96788 7.33632 5.54103C7.33982 5.05121 6.97945 4.77831 6.36717 4.77831H5.78988ZM8.69701 3.48728C8.69701 2.51463 9.46673 1.83938 10.5618 1.83938C11.6429 1.83938 12.3567 2.46915 12.3567 3.30884C12.3567 3.92812 12.0523 4.30948 11.1986 5.12468L10.1385 6.13931V6.16031H12.4267V7H8.75649V6.27576L10.5443 4.58238C11.1846 3.9666 11.3281 3.72519 11.3281 3.37532C11.3281 2.96947 11.0167 2.66158 10.5618 2.66158C10.058 2.66158 9.67665 3.00095 9.67665 3.48728H8.69701Z" fill="#0B0D0F"/>
</svg>
