<svg width="12" height="10" viewBox="0 0 12 10" fill="none" xmlns="http://www.w3.org/2000/svg">
<path fill-rule="evenodd" clip-rule="evenodd" d="M6.18857 2.34245C7.79528 2.34253 9.34056 2.97476 10.505 4.10848C10.5927 4.19601 10.7328 4.19491 10.8192 4.10601L11.6574 3.2397C11.7011 3.19461 11.7255 3.13354 11.7252 3.06999C11.7248 3.00644 11.6997 2.94566 11.6555 2.9011C8.59917 -0.0984619 3.77748 -0.0984619 0.721173 2.9011C0.6769 2.94563 0.65178 3.00639 0.651372 3.06994C0.650964 3.13348 0.675301 3.19458 0.718998 3.2397L1.55744 4.10601C1.64375 4.19504 1.78401 4.19615 1.87164 4.10848C3.03624 2.97469 4.58169 2.34245 6.18857 2.34245ZM6.18856 5.16085C7.07134 5.16079 7.92262 5.49682 8.57699 6.10363C8.6655 6.18976 8.80492 6.18789 8.8912 6.09943L9.72843 5.23312C9.77252 5.18768 9.79698 5.12604 9.79635 5.06198C9.79571 4.99792 9.77003 4.9368 9.72504 4.89229C7.73236 2.99405 4.64644 2.99405 2.65376 4.89229C2.60875 4.9368 2.58307 4.99795 2.58248 5.06203C2.58189 5.12611 2.60644 5.18775 2.65062 5.23312L3.48761 6.09943C3.57389 6.18789 3.71331 6.18976 3.80181 6.10363C4.45575 5.49722 5.30635 5.16122 6.18856 5.16085ZM7.86567 7.05728C7.86695 7.12151 7.8423 7.18344 7.79752 7.22845L6.34928 8.72518C6.30683 8.76917 6.24895 8.79392 6.18855 8.79392C6.12816 8.79392 6.07028 8.76917 6.02783 8.72518L4.57934 7.22845C4.5346 7.18341 4.50998 7.12146 4.51131 7.05722C4.51264 6.99299 4.53979 6.93216 4.58635 6.8891C5.51125 6.08798 6.86585 6.08798 7.79075 6.8891C7.83729 6.9322 7.86439 6.99304 7.86567 7.05728Z" fill="#0B0D0F"/>
</svg>
