<svg width="294" height="136" viewBox="0 0 294 136" fill="none" xmlns="http://www.w3.org/2000/svg">
<g clip-path="url(#clip0_1_772)">
<g filter="url(#filter0_d_1_772)">
<g clip-path="url(#clip1_1_772)">
<rect x="53" y="16" width="188" height="149" rx="8" fill="white"/>
<rect width="188.64" height="28.8" transform="translate(53 44.8)" fill="white"/>
<path d="M70.7598 52.48L64.1246 59.1151C64.0778 59.162 64.0778 59.238 64.1246 59.2848L70.7598 65.92" stroke="black" stroke-width="0.96" stroke-linecap="round"/>
<path d="M82.5724 56.1375C82.5724 56.9625 83.0524 57.7575 84.1324 58.095L83.6224 58.8375C82.8986 58.5975 82.3924 58.1325 82.0999 57.5325C81.8036 58.2225 81.2749 58.7625 80.4949 59.025L79.9774 58.275C81.1174 57.8925 81.6049 56.985 81.6124 56.0475V55.425H82.5724V56.1375ZM85.4974 55.065V56.6625H86.4199V57.4575H85.4974V59.115H84.5374V55.065H85.4974ZM83.2624 59.25C84.6724 59.25 85.5649 59.7375 85.5649 60.57C85.5649 61.41 84.6724 61.89 83.2624 61.89C81.8224 61.89 80.9224 61.41 80.9224 60.57C80.9224 59.7375 81.8224 59.25 83.2624 59.25ZM83.2624 60C82.3624 60 81.8749 60.195 81.8824 60.57C81.8749 60.96 82.3624 61.14 83.2624 61.14C84.1474 61.14 84.6199 60.96 84.6199 60.57C84.6199 60.195 84.1474 60 83.2624 60ZM92.7913 58.26V59.0175H90.1513V59.6025H92.0488V61.815H87.2863V59.6025H89.1988V59.0175H86.5663V58.26H92.7913ZM92.2363 55.2525V56.0175H91.3438V57.06H92.1913V57.825H87.1588V57.06H87.9988V56.0175H87.1138V55.2525H92.2363ZM88.2313 60.345V61.05H91.1113V60.345H88.2313ZM88.9588 57.06H90.3838V56.0175H88.9588V57.06ZM100.389 55.065V61.905H99.4366V55.065H100.389ZM98.2741 55.635V58.2675H96.0241V59.52C97.0628 59.5162 97.9478 59.4562 98.9491 59.295L99.0316 60.0675C97.9066 60.2625 96.8941 60.3075 95.6491 60.3075H95.0341V57.51H97.2991V56.4075H95.0266V55.635H98.2741ZM107.39 58.9275V59.7H105.98V61.89H105.02V59.7H103.528V61.89H102.545V59.7H101.143V58.9275H107.39ZM102.823 55.32V56.0775H105.688V55.32H106.648V58.2825H101.878V55.32H102.823ZM102.823 57.525H105.688V56.8275H102.823V57.525Z" fill="black"/>
<path d="M66.9726 84.3178C67.1508 83.9687 67.6496 83.9687 67.8277 84.3178L69.3036 87.2098C69.3734 87.3465 69.5043 87.4416 69.6558 87.4657L72.8624 87.9757C73.2494 88.0372 73.4036 88.5116 73.1266 88.7889L70.8322 91.0863C70.7238 91.1948 70.6738 91.3487 70.6977 91.5002L71.2036 94.7075C71.2646 95.0946 70.8611 95.3878 70.5118 95.2101L67.6178 93.7379C67.4811 93.6683 67.3193 93.6683 67.1825 93.7379L64.2886 95.2101C63.9393 95.3878 63.5357 95.0946 63.5968 94.7075L64.1027 91.5002C64.1266 91.3487 64.0766 91.1948 63.9682 91.0863L61.6737 88.7889C61.3968 88.5116 61.5509 88.0372 61.938 87.9757L65.1446 87.4657C65.2961 87.4416 65.427 87.3465 65.4967 87.2098L66.9726 84.3178Z" fill="#F5B000"/>
<path d="M80.4126 84.3179C80.5907 83.9688 81.0895 83.9688 81.2677 84.3179L82.7436 87.2099C82.8133 87.3466 82.9442 87.4417 83.0957 87.4658L86.3023 87.9758C86.6894 88.0373 86.8435 88.5117 86.5666 88.789L84.2721 91.0864C84.1637 91.195 84.1137 91.3488 84.1376 91.5004L84.6435 94.7076C84.7046 95.0947 84.301 95.3879 83.9517 95.2102L81.0578 93.738C80.921 93.6685 80.7592 93.6685 80.6225 93.738L77.7285 95.2102C77.3792 95.3879 76.9757 95.0947 77.0367 94.7076L77.5426 91.5004C77.5665 91.3488 77.5165 91.195 77.4081 91.0864L75.1137 88.789C74.8367 88.5117 74.9909 88.0373 75.3779 87.9758L78.5845 87.4658C78.736 87.4417 78.8669 87.3466 78.9367 87.2099L80.4126 84.3179Z" fill="#F5B000"/>
<path d="M93.853 84.3179C94.0312 83.9688 94.5299 83.9688 94.7081 84.3179L96.184 87.2099C96.2538 87.3466 96.3846 87.4417 96.5362 87.4658L99.7428 87.9758C100.13 88.0373 100.284 88.5117 100.007 88.789L97.7126 91.0864C97.6041 91.195 97.5541 91.3488 97.5781 91.5004L98.0839 94.7076C98.145 95.0947 97.7415 95.3879 97.3921 95.2102L94.4982 93.738C94.3614 93.6685 94.1997 93.6685 94.0629 93.738L91.169 95.2102C90.8196 95.3879 90.4161 95.0947 90.4772 94.7076L90.983 91.5004C91.0069 91.3488 90.957 91.195 90.8485 91.0864L88.5541 88.789C88.2772 88.5117 88.4313 88.0373 88.8183 87.9758L92.0249 87.4658C92.1765 87.4417 92.3073 87.3466 92.3771 87.2099L93.853 84.3179Z" fill="#F5B000"/>
<path d="M107.293 84.3179C107.471 83.9688 107.97 83.9688 108.148 84.3179L109.624 87.2099C109.694 87.3466 109.825 87.4417 109.976 87.4658L113.183 87.9758C113.57 88.0373 113.724 88.5117 113.447 88.789L111.153 91.0864C111.044 91.195 110.994 91.3488 111.018 91.5004L111.524 94.7076C111.585 95.0947 111.181 95.3879 110.832 95.2102L107.938 93.738C107.801 93.6685 107.64 93.6685 107.503 93.738L104.609 95.2102C104.26 95.3879 103.856 95.0947 103.917 94.7076L104.423 91.5004C104.447 91.3488 104.397 91.195 104.288 91.0864L101.994 88.789C101.717 88.5117 101.871 88.0373 102.258 87.9758L105.465 87.4658C105.616 87.4417 105.747 87.3466 105.817 87.2099L107.293 84.3179Z" fill="#F5B000"/>
<path d="M120.733 84.3179C120.911 83.9688 121.41 83.9688 121.588 84.3179L123.064 87.2099C123.134 87.3466 123.265 87.4417 123.416 87.4658L126.623 87.9758C127.01 88.0373 127.164 88.5117 126.887 88.789L124.592 91.0864C124.484 91.195 124.434 91.3488 124.458 91.5004L124.964 94.7076C125.025 95.0947 124.621 95.3879 124.272 95.2102L121.378 93.738C121.241 93.6685 121.08 93.6685 120.943 93.738L118.049 95.2102C117.7 95.3879 117.296 95.0947 117.357 94.7076L117.863 91.5004C117.887 91.3488 117.837 91.195 117.728 91.0864L115.434 88.789C115.157 88.5117 115.311 88.0373 115.698 87.9758L118.905 87.4658C119.056 87.4417 119.187 87.3466 119.257 87.2099L120.733 84.3179Z" fill="#F5B000"/>
<path d="M134.218 86.0533V94.2001H133.2V87.1115H133.152L131.171 88.4242V87.4058L133.2 86.0533H134.218ZM138.709 94.3115C136.903 94.3115 135.861 92.7919 135.861 90.1267C135.861 87.4854 136.919 85.942 138.709 85.942C140.499 85.942 141.557 87.4854 141.557 90.1267C141.557 92.7919 140.515 94.3115 138.709 94.3115ZM136.847 90.1267C136.847 92.235 137.532 93.4124 138.709 93.4124C139.887 93.4124 140.571 92.235 140.571 90.1267C140.571 88.0184 139.879 86.825 138.709 86.825C137.54 86.825 136.847 88.0184 136.847 90.1267ZM143.56 93.4363L142.693 96.4993H141.858L142.478 93.4363H143.56ZM147.374 94.3115C145.656 94.3115 144.47 93.3647 144.478 92.0361C144.47 90.9859 145.202 90.1187 146.133 89.9676V89.9278C145.321 89.7369 144.788 88.989 144.788 88.1059C144.788 86.8569 145.878 85.942 147.374 85.942C148.854 85.942 149.944 86.8569 149.952 88.1059C149.944 88.989 149.403 89.7369 148.607 89.9278V89.9676C149.53 90.1187 150.262 90.9859 150.27 92.0361C150.262 93.3647 149.069 94.3115 147.374 94.3115ZM145.489 91.9804C145.473 92.8396 146.197 93.4204 147.374 93.4204C148.536 93.4204 149.26 92.8396 149.26 91.9804C149.26 91.0814 148.464 90.4211 147.374 90.4211C146.276 90.4211 145.473 91.0814 145.489 91.9804ZM145.775 88.1775C145.775 89.0049 146.435 89.5618 147.374 89.5618C148.297 89.5618 148.965 89.0049 148.965 88.1775C148.965 87.366 148.321 86.8171 147.374 86.8171C146.403 86.8171 145.775 87.366 145.775 88.1775ZM151.286 94.2001L151.278 93.4602L154.055 90.5324C155.017 89.5062 155.479 88.9572 155.487 88.2094C155.479 87.366 154.778 86.825 153.864 86.825C152.893 86.825 152.28 87.4376 152.28 88.3526H151.318C151.31 86.9126 152.424 85.942 153.895 85.942C155.375 85.942 156.425 86.9364 156.433 88.2094C156.425 89.1163 156.004 89.8244 154.556 91.3121L152.694 93.2374V93.3011H156.577V94.2001H151.286ZM160.367 94.3115C158.561 94.3115 157.519 92.7919 157.519 90.1267C157.519 87.4854 158.577 85.942 160.367 85.942C162.157 85.942 163.215 87.4854 163.215 90.1267C163.215 92.7919 162.173 94.3115 160.367 94.3115ZM158.505 90.1267C158.505 92.235 159.189 93.4124 160.367 93.4124C161.544 93.4124 162.228 92.235 162.228 90.1267C162.228 88.0184 161.536 86.825 160.367 86.825C159.197 86.825 158.505 88.0184 158.505 90.1267Z" fill="black"/>
<path d="M195.782 88.4593C195.776 89.3715 196.261 90.4215 197.246 90.8743L196.78 91.5306C196.113 91.2254 195.638 90.6151 195.375 89.8965C195.106 90.6873 194.617 91.3567 193.925 91.6815L193.439 91.0187C194.437 90.5528 194.936 89.4437 194.942 88.4593V88.0918H193.676V87.4093H196.983V88.0918H195.782V88.4593ZM198.289 86.8318V89.109H199.168V89.8112H198.289V92.8037H197.449V86.8318H198.289ZM201.1 88.3346C201.1 89.2993 201.369 90.2968 202.182 90.8218L201.73 91.4715C201.214 91.1598 200.886 90.6479 200.699 90.0343C200.483 90.7103 200.125 91.2746 199.584 91.6028L199.072 90.9859C199.958 90.4346 200.286 89.3846 200.286 88.374V87.3437H201.1V88.3346ZM204.361 86.8318V92.8037H203.56V86.8318H204.361ZM203.108 86.9171V92.5281H202.327V89.529H201.552V88.8465H202.327V86.9171H203.108ZM209.79 86.8318V92.8037H208.944V86.8318H209.79ZM208.484 87.7309V88.4003H204.914V87.7309H206.273V86.9106H207.126V87.7309H208.484ZM206.712 88.7284C207.592 88.7284 208.248 89.319 208.248 90.1525C208.248 90.9859 207.592 91.5765 206.712 91.5765C205.826 91.5765 205.17 90.9859 205.17 90.1525C205.17 89.319 205.826 88.7284 206.712 88.7284ZM206.712 89.4043C206.273 89.4109 205.971 89.6931 205.971 90.1525C205.971 90.6184 206.273 90.894 206.712 90.8875C207.145 90.894 207.447 90.6184 207.447 90.1525C207.447 89.6931 207.145 89.4109 206.712 89.4043ZM217.209 91.4256V92.1081H211.743V91.4256H214.046V90.3231H212.32V87.2125H213.16V88.1378H215.766V87.2125H216.599V90.3231H214.88V91.4256H217.209ZM213.16 89.6537H215.766V88.8071H213.16V89.6537ZM222.369 86.8318V92.8037H221.523V86.8318H222.369ZM220.578 87.4553C220.578 89.2665 219.941 90.7693 217.808 91.78L217.369 91.1106C218.911 90.3821 219.59 89.4371 219.725 88.1115H217.69V87.4553H220.578Z" fill="#3469FF"/>
<path d="M232.04 89L229.244 91.7951C229.198 91.842 229.122 91.842 229.075 91.7951L226.28 89" stroke="#3469FF" stroke-width="0.72"/>
<rect x="60.6797" y="108.72" width="173.28" height="19.68" rx="9.84" fill="#F0F3F6"/>
<path d="M71.4128 119.63C71.0919 119.889 70.6922 120.03 70.28 120.03C69.8678 120.03 69.4681 119.889 69.1472 119.63C69.0492 119.549 68.9228 119.509 68.7959 119.521C68.6689 119.533 68.5519 119.594 68.4704 119.692C68.3889 119.79 68.3497 119.917 68.3614 120.044C68.3731 120.171 68.4348 120.288 68.5328 120.369C69.023 120.778 69.6414 121.003 70.28 121.003C70.9186 121.003 71.5369 120.778 72.0272 120.369C72.1252 120.288 72.1869 120.171 72.1986 120.044C72.2103 119.917 72.1711 119.79 72.0896 119.692C72.0492 119.644 71.9997 119.604 71.9439 119.574C71.888 119.545 71.827 119.527 71.7641 119.521C71.6372 119.509 71.5108 119.549 71.4128 119.63ZM68.84 118.08C68.9349 118.08 69.0277 118.051 69.1067 117.999C69.1856 117.946 69.2471 117.871 69.2834 117.783C69.3198 117.696 69.3293 117.599 69.3108 117.506C69.2922 117.413 69.2465 117.327 69.1794 117.26C69.1123 117.193 69.0267 117.147 68.9336 117.129C68.8405 117.11 68.744 117.12 68.6563 117.156C68.5686 117.193 68.4936 117.254 68.4409 117.333C68.3881 117.412 68.36 117.505 68.36 117.6C68.36 117.727 68.4106 117.849 68.5006 117.939C68.5906 118.029 68.7127 118.08 68.84 118.08ZM71.72 117.12C71.625 117.12 71.5322 117.148 71.4533 117.201C71.3744 117.253 71.3129 117.328 71.2765 117.416C71.2402 117.504 71.2307 117.6 71.2492 117.693C71.2677 117.786 71.3134 117.872 71.3806 117.939C71.4477 118.006 71.5332 118.052 71.6263 118.07C71.7194 118.089 71.816 118.079 71.9037 118.043C71.9914 118.007 72.0663 117.945 72.1191 117.866C72.1718 117.787 72.2 117.695 72.2 117.6C72.2 117.472 72.1494 117.35 72.0594 117.26C71.9694 117.17 71.8473 117.12 71.72 117.12ZM70.28 113.76C69.3306 113.76 68.4026 114.041 67.6132 114.569C66.8239 115.096 66.2087 115.846 65.8454 116.723C65.4821 117.6 65.387 118.565 65.5722 119.496C65.7574 120.427 66.2146 121.282 66.8859 121.954C67.5572 122.625 68.4124 123.082 69.3435 123.267C70.2747 123.453 71.2398 123.358 72.1169 122.994C72.9939 122.631 73.7436 122.016 74.271 121.226C74.7985 120.437 75.08 119.509 75.08 118.56C75.08 117.929 74.9558 117.305 74.7146 116.723C74.4734 116.14 74.1198 115.611 73.6741 115.166C73.2284 114.72 72.6992 114.366 72.1169 114.125C71.5345 113.884 70.9103 113.76 70.28 113.76ZM70.28 122.4C69.5205 122.4 68.7781 122.174 68.1466 121.752C67.5151 121.331 67.0229 120.731 66.7323 120.029C66.4416 119.327 66.3656 118.555 66.5138 117.81C66.6619 117.066 67.0277 116.381 67.5647 115.844C68.1017 115.307 68.7859 114.942 69.5308 114.793C70.2757 114.645 71.0478 114.721 71.7495 115.012C72.4512 115.303 73.0509 115.795 73.4728 116.426C73.8948 117.058 74.12 117.8 74.12 118.56C74.12 119.578 73.7154 120.555 72.9953 121.275C72.2751 121.995 71.2984 122.4 70.28 122.4Z" fill="black"/>
<path d="M80.7275 115.13V120.56H79.595V116.202H79.565L78.32 116.982V115.985L79.6625 115.13H80.7275ZM85.0121 114.987V118.265H81.7346V114.987H85.0121ZM82.6796 115.752V117.515H84.0671V115.752H82.6796ZM86.9471 114.425V116.39H87.8696V117.177H86.9471V119.405H85.9871V114.425H86.9471ZM87.1946 120.365V121.13H82.5221V118.917H83.4746V120.365H87.1946ZM93.6917 114.425V118.422H92.7392V117.552H91.4642V118.047H88.2242V114.927H91.4642V115.422H92.7392V114.425H93.6917ZM89.1767 115.685V117.29H90.5267V115.685H89.1767ZM91.3592 118.602C92.8142 118.602 93.7067 119.09 93.7142 119.93C93.7067 120.77 92.8142 121.25 91.3592 121.25C89.9042 121.25 89.0117 120.77 89.0117 119.93C89.0117 119.09 89.9042 118.602 91.3592 118.602ZM91.3592 119.33C90.4517 119.33 89.9642 119.525 89.9642 119.93C89.9642 120.32 90.4517 120.522 91.3592 120.522C92.2667 120.522 92.7617 120.32 92.7617 119.93C92.7617 119.525 92.2667 119.33 91.3592 119.33ZM91.4642 116.78H92.7392V116.18H91.4642V116.78ZM101.601 114.425V121.265H100.633V114.425H101.601ZM97.8959 114.905C98.9234 114.905 99.6884 115.85 99.6884 117.335C99.6884 118.835 98.9234 119.772 97.8959 119.772C96.8459 119.772 96.0809 118.835 96.0884 117.335C96.0809 115.85 96.8459 114.905 97.8959 114.905ZM97.8959 115.767C97.3634 115.767 97.0109 116.322 97.0109 117.335C97.0109 118.355 97.3634 118.902 97.8959 118.902C98.4134 118.902 98.7659 118.355 98.7659 117.335C98.7659 116.322 98.4134 115.767 97.8959 115.767ZM104.783 115.497C104.783 116.322 105.263 117.117 106.343 117.455L105.833 118.197C105.109 117.957 104.603 117.492 104.31 116.892C104.014 117.582 103.485 118.122 102.705 118.385L102.188 117.635C103.328 117.252 103.815 116.345 103.823 115.407V114.785H104.783V115.497ZM107.708 114.425V116.022H108.63V116.817H107.708V118.475H106.748V114.425H107.708ZM105.473 118.61C106.883 118.61 107.775 119.097 107.775 119.93C107.775 120.77 106.883 121.25 105.473 121.25C104.033 121.25 103.133 120.77 103.133 119.93C103.133 119.097 104.033 118.61 105.473 118.61ZM105.473 119.36C104.573 119.36 104.085 119.555 104.093 119.93C104.085 120.32 104.573 120.5 105.473 120.5C106.358 120.5 106.83 120.32 106.83 119.93C106.83 119.555 106.358 119.36 105.473 119.36ZM113.72 114.987V118.265H110.442V114.987H113.72ZM111.387 115.752V117.515H112.775V115.752H111.387ZM115.655 114.425V116.39H116.577V117.177H115.655V119.405H114.695V114.425H115.655ZM115.902 120.365V121.13H111.23V118.917H112.182V120.365H115.902ZM122.309 114.672V115.43H120.442C120.592 115.929 121.297 116.412 122.609 116.532L122.264 117.282C120.982 117.155 120.116 116.667 119.752 115.992C119.392 116.664 118.541 117.155 117.262 117.282L116.924 116.532C118.218 116.412 118.919 115.925 119.069 115.43H117.217V114.672H122.309ZM122.872 117.747V118.512H116.647V117.747H119.279V116.855H120.224V117.747H122.872ZM122.114 119V121.25H121.162V119.765H117.337V119H122.114ZM128.919 114.432V118.632H128.011V116.952H127.479V118.557H126.586V114.522H127.479V116.18H128.011V114.432H128.919ZM126.369 115.077V115.835H123.016V115.077H124.224V114.462H125.176V115.077H126.369ZM124.704 116.052C125.574 116.052 126.189 116.532 126.196 117.245C126.189 117.942 125.574 118.437 124.704 118.437C123.849 118.437 123.226 117.942 123.226 117.245C123.226 116.532 123.849 116.052 124.704 116.052ZM124.704 116.735C124.329 116.735 124.081 116.907 124.081 117.245C124.081 117.567 124.329 117.747 124.704 117.747C125.079 117.747 125.326 117.567 125.334 117.245C125.326 116.907 125.079 116.735 124.704 116.735ZM125.671 118.985C125.664 119.484 125.885 119.997 126.429 120.335C126.969 119.979 127.209 119.439 127.216 118.985V118.842H128.169V118.985C128.161 119.622 128.544 120.222 129.451 120.455L129.009 121.167C128.349 120.969 127.914 120.571 127.681 120.065C127.456 120.567 127.063 121.01 126.444 121.235C125.806 121.014 125.405 120.597 125.191 120.095C124.94 120.575 124.513 120.965 123.886 121.167L123.436 120.455C124.321 120.2 124.719 119.585 124.719 118.985V118.842H125.671V118.985ZM131.343 114.905C132.266 114.905 132.952 115.666 133.091 116.892H134.276V114.425H135.221V121.265H134.276V117.657H133.098C132.997 118.97 132.296 119.772 131.343 119.772C130.308 119.772 129.566 118.835 129.573 117.335C129.566 115.85 130.308 114.905 131.343 114.905ZM131.343 115.767C130.833 115.767 130.481 116.322 130.488 117.335C130.481 118.355 130.833 118.902 131.343 118.902C131.861 118.902 132.198 118.355 132.198 117.335C132.198 116.322 131.861 115.767 131.343 115.767ZM142.116 119.667V120.455H135.868V119.667H137.263V117.995C136.734 117.68 136.416 117.196 136.416 116.592C136.416 115.49 137.496 114.755 138.981 114.755C140.458 114.755 141.546 115.49 141.553 116.592C141.549 117.181 141.238 117.661 140.728 117.98V119.667H142.116ZM138.981 115.512C138.006 115.512 137.361 115.902 137.361 116.592C137.361 117.26 138.006 117.672 138.981 117.672C139.948 117.672 140.601 117.26 140.608 116.592C140.601 115.902 139.948 115.512 138.981 115.512ZM138.208 119.667H139.761V118.34C139.517 118.389 139.254 118.415 138.981 118.415C138.707 118.415 138.448 118.392 138.208 118.34V119.667Z" fill="#0B0D0F"/>
<rect width="188.64" height="28.8" transform="translate(53 16)" fill="white"/>
<path d="M76.3901 33.1556C75.3143 33.1556 74.4816 32.538 74.3222 31.6296H75.3422C75.4857 32.0838 75.8721 32.3229 76.3981 32.3229C77.3025 32.3229 77.7408 31.4742 77.7408 30.1354H77.7249C77.5018 30.6932 76.9121 31.0678 76.167 31.0678C75.0912 31.0678 74.2585 30.2948 74.2585 29.1832C74.2585 28.0118 75.1629 27.1711 76.4061 27.1711C77.5854 27.1711 78.7289 27.9679 78.7289 30.0996C78.7289 32.0161 77.8524 33.1556 76.3901 33.1556ZM76.4061 30.2709C77.0714 30.2709 77.5695 29.8047 77.5695 29.1632C77.5695 28.5178 77.0675 28.0157 76.418 28.0157C75.7765 28.0157 75.2665 28.5138 75.2665 29.1433C75.2665 29.8007 75.7526 30.2709 76.4061 30.2709ZM79.9313 29.2469C79.6086 29.2469 79.3575 28.9919 79.3575 28.6732C79.3575 28.3544 79.6086 28.0994 79.9313 28.0994C80.25 28.0994 80.5011 28.3544 80.5011 28.6732C80.5011 28.9919 80.25 29.2469 79.9313 29.2469ZM79.9313 32.2272C79.6086 32.2272 79.3575 31.9722 79.3575 31.6535C79.3575 31.3347 79.6086 31.0797 79.9313 31.0797C80.25 31.0797 80.5011 31.3347 80.5011 31.6535C80.5011 31.9722 80.25 32.2272 79.9313 32.2272ZM83.9546 33.04V31.9364H81.0858V31.0598C81.5839 30.1235 82.2254 29.1035 83.4725 27.2906H84.9347V31.0917H85.7157V31.9364H84.9347V33.04H83.9546ZM82.0102 31.0877V31.1156H83.9705V28.0556H83.9546C83.0262 29.3864 82.4684 30.251 82.0102 31.0877ZM87.5595 33.04V28.2707H87.5356L86.0494 29.2907V28.3464L87.5515 27.2906H88.5675V33.04H87.5595Z" fill="#0B0D0F"/>
<path d="M92.1205 30.3062C92.0097 30.3042 91.9173 30.2799 91.8435 30.233C91.7715 30.1843 91.7181 30.1228 91.6831 30.0486C91.6481 29.9726 91.6345 29.8926 91.6423 29.8087C91.65 29.7228 91.6792 29.6438 91.7297 29.5716C91.7803 29.4974 91.8551 29.4379 91.9543 29.3931L96.6198 27.2361C96.754 27.1756 96.8774 27.1512 96.9902 27.1629C97.1029 27.1726 97.1952 27.2126 97.2672 27.2829C97.3391 27.3512 97.3819 27.4409 97.3955 27.5521C97.411 27.6614 97.3877 27.7843 97.3255 27.9209L95.1822 32.5861C95.1356 32.6915 95.0744 32.7705 94.9985 32.8232C94.9227 32.8778 94.8421 32.909 94.7565 32.9169C94.671 32.9266 94.5903 32.9139 94.5145 32.8788C94.4387 32.8437 94.3774 32.7891 94.3308 32.7149C94.2841 32.6427 94.2608 32.553 94.2608 32.4456L94.255 30.3589C94.255 30.3277 94.2394 30.3121 94.2083 30.3121L92.1205 30.3062Z" fill="#0B0D0F"/>
<rect x="118.04" y="21.7601" width="58.56" height="17.28" rx="8.64" fill="#0B0D0F"/>
<circle cx="167.96" cy="30.4" r="2.88" fill="#0E101F"/>
<circle cx="167.959" cy="30.3999" r="2.35636" fill="#01031A"/>
<g filter="url(#filter1_f_1_772)">
<ellipse cx="167.959" cy="29.0908" rx="1.30909" ry="0.523636" fill="white" fill-opacity="0.1"/>
</g>
<g filter="url(#filter2_f_1_772)">
<ellipse cx="167.959" cy="31.4472" rx="1.30909" ry="0.785455" fill="white" fill-opacity="0.1"/>
</g>
<path d="M189.76 31.36H190.32C190.629 31.36 190.88 31.6018 190.88 31.9V32.98C190.88 33.2782 190.629 33.52 190.32 33.52H189.76C189.451 33.52 189.2 33.2782 189.2 32.98V31.9C189.2 31.6018 189.451 31.36 189.76 31.36Z" fill="#0B0D0F"/>
<path d="M192.16 30.4H192.72C193.029 30.4 193.28 30.6418 193.28 30.94V32.98C193.28 33.2783 193.029 33.52 192.72 33.52H192.16C191.851 33.52 191.6 33.2783 191.6 32.98V30.94C191.6 30.6418 191.851 30.4 192.16 30.4Z" fill="#0B0D0F"/>
<path opacity="0.2" d="M194.56 28.9601H195.12C195.429 28.9601 195.68 29.2018 195.68 29.5001V32.9801C195.68 33.2783 195.429 33.5201 195.12 33.5201H194.56C194.251 33.5201 194 33.2783 194 32.9801V29.5001C194 29.2018 194.251 28.9601 194.56 28.9601Z" fill="#0B0D0F"/>
<path opacity="0.2" d="M196.96 27.52H197.52C197.83 27.52 198.08 27.7618 198.08 28.06V32.98C198.08 33.2783 197.83 33.52 197.52 33.52H196.96C196.651 33.52 196.4 33.2783 196.4 32.98V28.06C196.4 27.7618 196.651 27.52 196.96 27.52Z" fill="#0B0D0F"/>
<path fill-rule="evenodd" clip-rule="evenodd" d="M206.881 28.7661C208.064 28.7661 209.203 29.232 210.061 30.0674C210.126 30.1319 210.229 30.1311 210.293 30.0656L210.91 29.4273C210.943 29.394 210.961 29.349 210.96 29.3022C210.96 29.2554 210.942 29.2106 210.909 29.1777C208.657 26.9674 205.104 26.9674 202.852 29.1777C202.819 29.2106 202.801 29.2553 202.8 29.3022C202.8 29.349 202.818 29.394 202.85 29.4273L203.468 30.0656C203.532 30.1312 203.635 30.132 203.699 30.0674C204.558 29.232 205.696 28.7661 206.881 28.7661ZM206.881 30.8429C207.531 30.8429 208.158 31.0905 208.64 31.5376C208.706 31.6011 208.808 31.5997 208.872 31.5345L209.489 30.8962C209.521 30.8627 209.539 30.8172 209.539 30.77C209.539 30.7228 209.52 30.6778 209.486 30.645C208.018 29.2462 205.744 29.2462 204.276 30.645C204.243 30.6778 204.224 30.7229 204.223 30.7701C204.223 30.8173 204.241 30.8627 204.273 30.8962L204.89 31.5345C204.954 31.5997 205.057 31.6011 205.122 31.5376C205.604 31.0908 206.23 30.8432 206.881 30.8429ZM208.116 32.2403C208.117 32.2877 208.099 32.3333 208.066 32.3665L206.999 33.4694C206.968 33.5018 206.925 33.52 206.881 33.52C206.836 33.52 206.793 33.5018 206.762 33.4694L205.695 32.3665C205.662 32.3333 205.644 32.2876 205.645 32.2403C205.646 32.193 205.666 32.1481 205.7 32.1164C206.381 31.5261 207.38 31.5261 208.061 32.1164C208.095 32.1482 208.115 32.193 208.116 32.2403Z" fill="#0B0D0F"/>
<g opacity="0.3">
<path d="M216.4 27.8933C216.08 28.3776 216.08 29.0518 216.08 30.4C216.08 31.7483 216.08 32.4225 216.4 32.9067C216.538 33.1164 216.716 33.2964 216.923 33.4365C217.402 33.76 218.068 33.76 219.4 33.76H224.616C225.948 33.76 226.614 33.76 227.092 33.4365C227.299 33.2964 227.477 33.1164 227.616 32.9067C227.935 32.4225 227.935 31.7483 227.935 30.4C227.935 29.0518 227.935 28.3776 227.616 27.8933C227.477 27.6837 227.299 27.5037 227.092 27.3636C226.614 27.04 225.948 27.04 224.616 27.04H219.4C218.068 27.04 217.402 27.04 216.923 27.3636C216.716 27.5037 216.538 27.6837 216.4 27.8933Z" fill="#0B0D0F"/>
<path d="M229.04 30.28C229.04 30.6991 228.792 31.0774 228.409 31.24V29.32C228.792 29.4827 229.04 29.8609 229.04 30.28Z" fill="#0B0D0F"/>
</g>
<path d="M216.08 30.4C216.08 29.0518 216.08 28.3776 216.404 27.8933C216.544 27.6837 216.724 27.5037 216.933 27.3636C217.418 27.04 218.092 27.04 219.44 27.04H220.822V33.76H219.44C218.092 33.76 217.418 33.76 216.933 33.4365C216.724 33.2964 216.544 33.1164 216.404 32.9067C216.08 32.4225 216.08 31.7483 216.08 30.4Z" fill="#F7CE45"/>
<path d="M221.067 30.4029V29.8486H221.482C221.871 29.8486 222.124 29.6372 222.124 29.333C222.124 29.0288 221.915 28.8354 221.544 28.8354C221.178 28.8354 220.922 29.0314 220.899 29.3536H220.185C220.224 28.673 220.765 28.2373 221.544 28.2373C222.33 28.2373 222.861 28.6266 222.861 29.2221C222.861 29.6965 222.523 30.0033 222.085 30.0936V30.109C222.637 30.1606 222.998 30.488 222.998 30.9985C222.998 31.6739 222.413 32.1225 221.549 32.1225C220.708 32.1225 220.136 31.6688 220.103 30.9856H220.845C220.871 31.2898 221.139 31.4961 221.549 31.4961C221.938 31.4961 222.206 31.2795 222.206 30.965C222.209 30.604 221.943 30.4029 221.492 30.4029H221.067ZM223.209 29.4516C223.209 28.7349 223.776 28.2373 224.583 28.2373C225.38 28.2373 225.906 28.7014 225.906 29.3201C225.906 29.7764 225.681 30.0575 225.052 30.6582L224.271 31.4058V31.4213H225.957V32.04H223.253V31.5064L224.57 30.2586C225.042 29.8048 225.148 29.6269 225.148 29.3691C225.148 29.07 224.918 28.8432 224.583 28.8432C224.212 28.8432 223.931 29.0932 223.931 29.4516H223.209Z" fill="#0B0D0F"/>
</g>
</g>
<g filter="url(#filter3_d_1_772)">
<path d="M12 75C12 72.7909 13.7909 71 16 71H193C195.209 71 197 72.7909 197 75V104C197 106.209 195.209 108 193 108H16C13.7909 108 12 106.209 12 104V75Z" fill="white" shape-rendering="crispEdges"/>
<path d="M33.4387 80.6767C33.7059 80.1531 34.4541 80.1531 34.7213 80.6767L36.9352 85.0148C37.0398 85.2198 37.2361 85.3624 37.4634 85.3986L42.2733 86.1636C42.8539 86.2559 43.0851 86.9675 42.6697 87.3834L39.228 90.8295C39.0654 90.9923 38.9904 91.2231 39.0263 91.4504L39.7851 96.2613C39.8767 96.842 39.2714 97.2818 38.7474 97.0152L34.4065 94.8069C34.2013 94.7026 33.9587 94.7026 33.7535 94.8069L29.4126 97.0152C28.8886 97.2818 28.2833 96.842 28.3749 96.2613L29.1337 91.4504C29.1696 91.2231 29.0946 90.9923 28.932 90.8295L25.4903 87.3834C25.0749 86.9675 25.3061 86.2559 25.8867 86.1636L30.6966 85.3986C30.9239 85.3624 31.1202 85.2198 31.2248 85.0148L33.4387 80.6767Z" fill="#F5B000"/>
<path d="M53.5988 80.6767C53.8661 80.1531 54.6143 80.1531 54.8815 80.6767L57.0953 85.0148C57.2 85.2198 57.3963 85.3624 57.6236 85.3986L62.4335 86.1636C63.014 86.2559 63.2452 86.9675 62.8298 87.3834L59.3882 90.8295C59.2255 90.9923 59.1506 91.2231 59.1864 91.4504L59.9452 96.2613C60.0368 96.842 59.4315 97.2818 58.9076 97.0152L54.5666 94.8069C54.3615 94.7026 54.1188 94.7026 53.9137 94.8069L49.5728 97.0152C49.0488 97.2818 48.4435 96.842 48.5351 96.2613L49.2939 91.4504C49.3298 91.2231 49.2548 90.9923 49.0921 90.8295L45.6505 87.3834C45.2351 86.9675 45.4663 86.2559 46.0468 86.1636L50.8567 85.3986C51.084 85.3624 51.2803 85.2198 51.385 85.0148L53.5988 80.6767Z" fill="#F5B000"/>
<path d="M73.759 80.6766C74.0262 80.153 74.7744 80.153 75.0416 80.6766L77.2555 85.0147C77.3601 85.2197 77.5564 85.3623 77.7837 85.3985L82.5936 86.1634C83.1742 86.2558 83.4054 86.9673 82.99 87.3833L79.5483 90.8294C79.3857 90.9922 79.3107 91.223 79.3466 91.4503L80.1054 96.2612C80.197 96.8419 79.5917 97.2817 79.0677 97.0151L74.7268 94.8068C74.5216 94.7024 74.279 94.7024 74.0739 94.8068L69.7329 97.0151C69.209 97.2817 68.6037 96.8419 68.6952 96.2612L69.4541 91.4503C69.4899 91.223 69.4149 90.9922 69.2523 90.8294L65.8106 87.3833C65.3952 86.9673 65.6264 86.2558 66.207 86.1634L71.0169 85.3985C71.2442 85.3623 71.4405 85.2197 71.5451 85.0147L73.759 80.6766Z" fill="#F5B000"/>
<path d="M93.9187 80.6766C94.1859 80.153 94.9341 80.153 95.2013 80.6766L97.4152 85.0147C97.5198 85.2197 97.7161 85.3623 97.9434 85.3985L102.753 86.1634C103.334 86.2558 103.565 86.9673 103.15 87.3833L99.708 90.8294C99.5454 90.9922 99.4704 91.223 99.5062 91.4503L100.265 96.2612C100.357 96.8419 99.7513 97.2817 99.2274 97.0151L94.8864 94.8068C94.6813 94.7024 94.4387 94.7024 94.2335 94.8068L89.8926 97.0151C89.3686 97.2817 88.7633 96.8419 88.8549 96.2612L89.6137 91.4503C89.6496 91.223 89.5746 90.9922 89.412 90.8294L85.9703 87.3833C85.5549 86.9673 85.7861 86.2558 86.3667 86.1634L91.1766 85.3985C91.4039 85.3623 91.6002 85.2197 91.7048 85.0147L93.9187 80.6766Z" fill="#F5B000"/>
<path d="M114.079 80.6766C114.346 80.153 115.094 80.153 115.361 80.6766L117.575 85.0147C117.68 85.2197 117.876 85.3623 118.104 85.3985L122.913 86.1634C123.494 86.2558 123.725 86.9673 123.31 87.3833L119.868 90.8294C119.706 90.9922 119.631 91.223 119.666 91.4503L120.425 96.2612C120.517 96.8419 119.911 97.2817 119.388 97.0151L115.047 94.8068C114.841 94.7024 114.599 94.7024 114.394 94.8068L110.053 97.0151C109.529 97.2817 108.923 96.8419 109.015 96.2612L109.774 91.4503C109.81 91.223 109.735 90.9922 109.572 90.8294L106.13 87.3833C105.715 86.9673 105.946 86.2558 106.527 86.1634L111.337 85.3985C111.564 85.3623 111.76 85.2197 111.865 85.0147L114.079 80.6766Z" fill="#F5B000"/>
<path d="M133.307 83.7799V96H131.78V85.3671H131.708L128.737 87.3361V85.8086L131.78 83.7799H133.307ZM140.043 96.1671C137.334 96.1671 135.771 93.8877 135.771 89.8899C135.771 85.928 137.358 83.6128 140.043 83.6128C142.729 83.6128 144.316 85.928 144.316 89.8899C144.316 93.8877 142.752 96.1671 140.043 96.1671ZM137.251 89.8899C137.251 93.0524 138.277 94.8186 140.043 94.8186C141.81 94.8186 142.836 93.0524 142.836 89.8899C142.836 86.7275 141.798 84.9375 140.043 84.9375C138.289 84.9375 137.251 86.7275 137.251 89.8899ZM147.32 94.8544L146.02 99.4488H144.767L145.697 94.8544H147.32ZM153.041 96.1671C150.463 96.1671 148.685 94.747 148.697 92.754C148.685 91.1788 149.783 89.878 151.179 89.6513V89.5916C149.962 89.3052 149.162 88.1834 149.162 86.8588C149.162 84.9852 150.797 83.6128 153.041 83.6128C155.261 83.6128 156.895 84.9852 156.907 86.8588C156.895 88.1834 156.084 89.3052 154.891 89.5916V89.6513C156.275 89.878 157.373 91.1788 157.385 92.754C157.373 94.747 155.583 96.1671 153.041 96.1671ZM150.213 92.6705C150.189 93.9593 151.275 94.8305 153.041 94.8305C154.783 94.8305 155.869 93.9593 155.869 92.6705C155.869 91.322 154.676 90.3315 153.041 90.3315C151.394 90.3315 150.189 91.322 150.213 92.6705ZM150.642 86.9662C150.642 88.2073 151.633 89.0427 153.041 89.0427C154.425 89.0427 155.428 88.2073 155.428 86.9662C155.428 85.7489 154.461 84.9255 153.041 84.9255C151.585 84.9255 150.642 85.7489 150.642 86.9662ZM158.909 96L158.897 94.8902L163.062 90.4986C164.505 88.9591 165.198 88.1357 165.21 87.0139C165.198 85.7489 164.147 84.9375 162.775 84.9375C161.319 84.9375 160.4 85.8564 160.4 87.2287H158.956C158.944 85.0687 160.615 83.6128 162.823 83.6128C165.043 83.6128 166.618 85.1045 166.63 87.0139C166.618 88.3744 165.985 89.4365 163.813 91.6681L161.021 94.556V94.6515H166.844V96H158.909ZM172.53 96.1671C169.821 96.1671 168.258 93.8877 168.258 89.8899C168.258 85.928 169.845 83.6128 172.53 83.6128C175.215 83.6128 176.802 85.928 176.802 89.8899C176.802 93.8877 175.239 96.1671 172.53 96.1671ZM169.737 89.8899C169.737 93.0524 170.764 94.8186 172.53 94.8186C174.296 94.8186 175.322 93.0524 175.322 89.8899C175.322 86.7275 174.284 84.9375 172.53 84.9375C170.776 84.9375 169.737 86.7275 169.737 89.8899Z" fill="black"/>
</g>
</g>
<defs>
<filter id="filter0_d_1_772" x="45" y="5" width="204" height="165" filterUnits="userSpaceOnUse" color-interpolation-filters="sRGB">
<feFlood flood-opacity="0" result="BackgroundImageFix"/>
<feColorMatrix in="SourceAlpha" type="matrix" values="0 0 0 0 0 0 0 0 0 0 0 0 0 0 0 0 0 0 127 0" result="hardAlpha"/>
<feOffset dy="-3"/>
<feGaussianBlur stdDeviation="4"/>
<feComposite in2="hardAlpha" operator="out"/>
<feColorMatrix type="matrix" values="0 0 0 0 0 0 0 0 0 0 0 0 0 0 0 0 0 0 0.15 0"/>
<feBlend mode="normal" in2="BackgroundImageFix" result="effect1_dropShadow_1_772"/>
<feBlend mode="normal" in="SourceGraphic" in2="effect1_dropShadow_1_772" result="shape"/>
</filter>
<filter id="filter1_f_1_772" x="166.17" y="28.0871" width="3.57816" height="2.00724" filterUnits="userSpaceOnUse" color-interpolation-filters="sRGB">
<feFlood flood-opacity="0" result="BackgroundImageFix"/>
<feBlend mode="normal" in="SourceGraphic" in2="BackgroundImageFix" result="shape"/>
<feGaussianBlur stdDeviation="0.24" result="effect1_foregroundBlur_1_772"/>
</filter>
<filter id="filter2_f_1_772" x="166.17" y="30.1817" width="3.57816" height="2.53092" filterUnits="userSpaceOnUse" color-interpolation-filters="sRGB">
<feFlood flood-opacity="0" result="BackgroundImageFix"/>
<feBlend mode="normal" in="SourceGraphic" in2="BackgroundImageFix" result="shape"/>
<feGaussianBlur stdDeviation="0.24" result="effect1_foregroundBlur_1_772"/>
</filter>
<filter id="filter3_d_1_772" x="8" y="67" width="201" height="53" filterUnits="userSpaceOnUse" color-interpolation-filters="sRGB">
<feFlood flood-opacity="0" result="BackgroundImageFix"/>
<feColorMatrix in="SourceAlpha" type="matrix" values="0 0 0 0 0 0 0 0 0 0 0 0 0 0 0 0 0 0 127 0" result="hardAlpha"/>
<feOffset dx="4" dy="4"/>
<feGaussianBlur stdDeviation="4"/>
<feComposite in2="hardAlpha" operator="out"/>
<feColorMatrix type="matrix" values="0 0 0 0 0 0 0 0 0 0 0 0 0 0 0 0 0 0 0.15 0"/>
<feBlend mode="normal" in2="BackgroundImageFix" result="effect1_dropShadow_1_772"/>
<feBlend mode="normal" in="SourceGraphic" in2="effect1_dropShadow_1_772" result="shape"/>
</filter>
<clipPath id="clip0_1_772">
<rect width="293.333" height="136" fill="white"/>
</clipPath>
<clipPath id="clip1_1_772">
<rect x="53" y="16" width="188" height="149" rx="8" fill="white"/>
</clipPath>
</defs>
</svg>
