<svg width="294" height="136" viewBox="0 0 294 136" fill="none" xmlns="http://www.w3.org/2000/svg">
<g clip-path="url(#clip0_1_1101)">
<path opacity="0.22" d="M225.666 125.805C225.666 127.02 205.303 128 180.189 128C155.075 128 134.711 127.015 134.711 125.805C134.711 124.596 155.075 123.611 180.189 123.611C205.303 123.611 225.666 124.596 225.666 125.805Z" fill="#3469FF"/>
<path d="M194.488 106.404C194.488 106.404 196.134 112.485 199.032 120.594C199.826 122.817 199.691 124.519 197.78 124.844C195.869 125.169 186.989 125.958 184.285 126.154C180.665 126.417 180.073 126.35 176.054 126.025C168.431 125.404 150.666 124.471 150.666 124.471V124.041C150.666 124.041 171.915 123.946 175.332 123.668C180.141 123.276 181.325 121.641 181.787 120.006C182.249 118.371 180.863 113.661 179.087 107.188L194.493 106.404H194.488Z" fill="#5E5F5E"/>
<path d="M193.343 105.916C193.343 105.916 194.989 111.998 197.886 120.106C198.68 122.33 198.546 124.032 196.635 124.357C194.724 124.682 185.844 125.471 183.139 125.667C179.52 125.93 178.928 125.863 174.909 125.538C167.285 124.916 150.613 124.032 150.613 124.032C150.613 124.032 169.379 123.573 174.182 123.181C178.991 122.789 180.175 121.153 180.637 119.518C181.099 117.883 179.712 113.174 177.936 106.7L193.343 105.916Z" fill="#BDBCBC"/>
<path d="M177.936 106.705C178.398 108.383 178.832 109.942 179.212 111.362C184.169 111.477 190.898 112.423 196.149 115.067C194.339 109.612 193.338 105.916 193.338 105.916L177.932 106.7L177.936 106.705Z" fill="#737473"/>
<path d="M217.446 8.12903L147.013 39.4785C146.392 39.7319 145.954 40.2913 145.853 40.9511L133.238 105.433C133.238 105.945 134.937 107.36 136.107 107.36H203.108C206.184 107.36 207.401 106.356 207.719 104.568L222.259 11.6622C222.293 11.4423 222.346 11.2989 222.105 11.1411C220.863 10.3188 218.245 8.4637 217.446 8.13381V8.12903Z" fill="#8E8E8D"/>
<path d="M216.055 8.14805L143.432 38.0154C142.811 38.2688 142.373 38.8282 142.272 39.4879L132.555 103.712C132.381 104.859 133.277 105.897 134.446 105.897H199.667C202.015 105.897 204.013 104.195 204.374 101.89L218.678 10.1943C218.904 8.73134 217.436 7.5791 216.055 8.14805Z" fill="#DEDEDE"/>
<path d="M216.055 8.14805L143.432 38.0154C142.811 38.2688 142.374 38.8282 142.272 39.4879L133.792 95.5412L206.15 90.5115L218.678 10.1943C218.904 8.73134 217.436 7.5791 216.055 8.14805Z" fill="#525251"/>
<path d="M213.003 11.4853L145.94 39.0672C145.367 39.3015 144.963 39.8179 144.866 40.4299L137.036 92.1897L203.854 87.5425L215.42 13.3786C215.631 12.0255 214.269 10.9641 212.999 11.4901L213.003 11.4853Z" fill="#9CD8F7"/>
<mask id="mask0_1_1101" style="mask-type:luminance" maskUnits="userSpaceOnUse" x="137" y="11" width="79" height="82">
<path d="M213.003 11.4853L145.94 39.0672C145.367 39.3015 144.963 39.8179 144.866 40.4299L137.036 92.1897L203.854 87.5425L215.42 13.3786C215.631 12.0255 214.269 10.9641 212.999 11.4901L213.003 11.4853Z" fill="white"/>
</mask>
<g mask="url(#mask0_1_1101)">
<path d="M216.854 9.52979L142.671 40.0378L142.238 42.9925L216.112 14.2822L216.854 9.52979Z" fill="#1F516E"/>
<path d="M146.402 44.379L145.993 46.6595L163.637 40.4489L164.051 37.4177L146.402 44.379Z" fill="#53B0D6"/>
<path d="M165.456 36.8583L165.033 39.9708L184.905 33.153L185.473 28.96L165.456 36.8583Z" fill="#53B0D6"/>
<path d="M211.516 18.6855L186.879 28.4055L186.296 32.6749L210.539 24.3607L211.516 18.6855Z" fill="#53B0D6"/>
<path d="M141.006 81.3604L139.596 90.3536L169.013 87.987L170.322 78.1571L141.006 81.3604Z" fill="#53B0D6"/>
<path d="M203.43 74.5427L171.857 77.9899L170.539 87.8628L201.775 85.3432L203.43 74.5427Z" fill="#53B0D6"/>
<path d="M175.328 75.102L203.878 71.4971L206.833 50.8142L177.874 57.6894L175.328 75.102Z" fill="#53B0D6"/>
<path d="M207.074 49.1361L210.106 27.913L180.805 37.6616L178.114 56.0495L207.074 49.1361Z" fill="#53B0D6"/>
<path d="M145.732 49.3274L140.987 79.4385L173.643 75.3173L179.134 38.2162L145.732 49.3274Z" fill="#53B0D6"/>
</g>
<path opacity="0.23" d="M216.055 8.14805L156.264 32.7371C163.382 59.1142 180.353 77.9612 207.377 82.6658L218.678 10.1943C218.904 8.73134 217.436 7.5791 216.055 8.14805Z" fill="white"/>
<g style="mix-blend-mode:multiply" opacity="0.3">
<path d="M196.187 16.3189L143.432 38.0154C142.811 38.2687 142.374 38.8281 142.272 39.4879L134.028 93.973L184.622 90.4541L196.182 16.3141L196.187 16.3189Z" fill="#405B67"/>
</g>
<path d="M193.737 10.2948L122.852 39.445L114.872 92.1897L181.69 87.5425L193.737 10.2948Z" fill="white"/>
<path d="M193.737 10.2947L122.852 39.4448L122.438 42.2657L193.03 14.8367L193.737 10.2947Z" fill="#405B67"/>
<path d="M180.795 71.8461L119.882 78.7978L123.391 53.329L186.754 31.7521L180.795 71.8461Z" fill="#3469FF" fill-opacity="0.5"/>
<path d="M124.796 44.4984L123.848 50.1784L141.156 44.2403L142.056 37.6854L124.796 44.4984Z" fill="#F0F3F6"/>
<path d="M143.432 37.1451L142.518 43.7717L161.952 37.1069L163.011 29.4189L143.432 37.1451Z" fill="#F0F3F6"/>
<path d="M188.486 19.3644L164.388 28.8739L163.319 36.6384L187.028 28.5058L188.486 19.3644Z" fill="#F0F3F6"/>
<path d="M119.521 80.672L118.14 89.4692L146.912 87.1504L148.192 77.5404L119.521 80.672Z" fill="#F0F3F6"/>
<path d="M180.579 74.0072L149.694 77.3779L148.409 87.0308L178.957 84.5686L180.579 74.0072Z" fill="#F0F3F6"/>
<g style="mix-blend-mode:multiply" opacity="0.3">
<path d="M122.852 39.445L114.872 92.1897L159.82 89.0629L170.621 19.7996L122.852 39.445Z" fill="#405B67"/>
</g>
<path d="M170.135 10.2948L99.2494 39.445L91.2695 92.1897L158.088 87.5425L170.135 10.2948Z" fill="white"/>
<path d="M170.135 10.2947L99.2494 39.4448L98.8354 42.2657L169.427 14.8367L170.135 10.2947Z" fill="#405B67"/>
<path d="M101.194 44.4984L100.79 46.7312L118.054 40.6545L118.453 37.6854L101.194 44.4984Z" fill="#F0F3F6"/>
<path d="M119.83 37.1451L119.416 40.1859L138.851 33.5211L139.409 29.4189L119.83 37.1451Z" fill="#F0F3F6"/>
<path d="M164.884 19.3644L140.785 28.8739L140.217 33.0526L163.926 24.92L164.884 19.3644Z" fill="#F0F3F6"/>
<path d="M95.9141 80.672L94.5376 89.4692L123.31 87.1504L124.59 77.5404L95.9141 80.672Z" fill="#F0F3F6"/>
<path d="M156.976 74.0072L126.092 77.3779L124.802 87.0308L155.354 84.5686L156.976 74.0072Z" fill="#F0F3F6"/>
<path d="M129.49 74.5522L157.415 71.0237L160.302 50.795L131.978 57.5172L129.49 74.5522Z" fill="#3469FF" fill-opacity="0.5"/>
<path d="M160.538 49.1552L163.502 28.391L134.841 37.9244L132.213 55.9108L160.538 49.1552Z" fill="#3469FF" fill-opacity="0.5"/>
<path d="M100.535 49.3416L95.895 78.793L127.839 74.7578L133.21 38.4695L100.535 49.3416Z" fill="#F0F3F6"/>
<g style="mix-blend-mode:multiply" opacity="0.3">
<path d="M99.2445 39.445L91.2646 92.1898L137.435 88.9769L148.308 19.2689L99.2445 39.445Z" fill="#405B67"/>
</g>
<path d="M146.532 10.2948L75.6464 39.445L67.6665 92.1897L134.485 87.5425L146.532 10.2948Z" fill="white"/>
<path d="M146.532 10.2947L75.6463 39.4448L75.2324 42.2657L145.824 14.8367L146.532 10.2947Z" fill="#405B67"/>
<path d="M133.59 71.8461L72.6768 78.7978L76.1854 53.329L139.548 31.7521L133.59 71.8461Z" fill="#3469FF" fill-opacity="0.5"/>
<path d="M77.5859 44.4984L76.6426 50.1784L93.9452 44.2403L94.85 37.6854L77.5859 44.4984Z" fill="#F0F3F6"/>
<path d="M96.2265 37.1451L95.312 43.7717L114.747 37.1069L115.806 29.4189L96.2265 37.1451Z" fill="#F0F3F6"/>
<path d="M141.281 19.3644L117.182 28.8739L116.114 36.6384L139.822 28.5058L141.281 19.3644Z" fill="#F0F3F6"/>
<path d="M72.3111 80.672L70.9346 89.4692L99.7017 87.1504L100.987 77.5404L72.3111 80.672Z" fill="#F0F3F6"/>
<path d="M133.373 74.0072L102.488 77.3779L101.198 87.0308L131.751 84.5686L133.373 74.0072Z" fill="#F0F3F6"/>
<path d="M77.427 40.4155C77.3741 40.798 77.042 41.0705 76.6955 41.0227C76.3441 40.9749 76.1083 40.6211 76.1612 40.2386C76.2142 39.8561 76.5463 39.5836 76.8928 39.6314C77.2441 39.6792 77.48 40.033 77.427 40.4155Z" fill="#E30613"/>
<path d="M79.3811 39.6123C79.3282 39.9948 78.9961 40.2673 78.6496 40.2195C78.2982 40.1717 78.0624 39.8179 78.1153 39.4354C78.1683 39.0529 78.5004 38.7804 78.8469 38.8282C79.1982 38.876 79.4341 39.2298 79.3811 39.6123Z" fill="#FFED00"/>
<path d="M81.3015 38.943C81.2486 39.3255 80.9165 39.598 80.57 39.5502C80.2186 39.5024 79.9828 39.1486 80.0357 38.7661C80.0887 38.3836 80.4208 38.1111 80.7673 38.1589C81.1138 38.2067 81.3545 38.5605 81.3015 38.943Z" fill="#CDD500"/>
<path d="M167.67 99.7342C167.521 101.733 166.381 103.277 165.12 103.181C163.859 103.086 162.963 101.393 163.117 99.3947C163.267 97.3962 164.407 95.8519 165.668 95.9476C166.929 96.0432 167.824 97.7357 167.67 99.7342Z" fill="#9D9E9E"/>
<path d="M109.072 100.843L89.522 107.824L95.7403 111.534L91.4808 116.353L95.5574 119.772L99.711 114.847L103.037 120.876L109.072 100.843Z" fill="#3469FF"/>
<path d="M109.072 100.843L89.522 107.824L95.7403 111.534L91.4808 116.353L93.5408 118.079L109.067 100.858L109.072 100.843Z" fill="white" fill-opacity="0.4"/>
</g>
<defs>
<clipPath id="clip0_1_1101">
<rect width="158" height="120" fill="white" transform="translate(67.6665 8)"/>
</clipPath>
</defs>
</svg>
