<svg width="52" height="11" viewBox="0 0 52 11" fill="none" xmlns="http://www.w3.org/2000/svg">
<path d="M4.54994 1.11703C4.78747 0.651589 5.45253 0.65159 5.69006 1.11703L6.50683 2.7175C6.59982 2.89972 6.77432 3.0265 6.97636 3.05863L8.75089 3.34086C9.26695 3.42293 9.47247 4.05544 9.10321 4.42517L7.83347 5.69654C7.6889 5.84129 7.62225 6.04643 7.65412 6.24851L7.93407 8.0234C8.01549 8.53957 7.47744 8.93047 7.0117 8.69354L5.41019 7.87882C5.22785 7.78606 5.01215 7.78606 4.82981 7.87882L3.2283 8.69354C2.76255 8.93047 2.22451 8.53956 2.30593 8.0234L2.58588 6.24851C2.61775 6.04643 2.55109 5.84129 2.40653 5.69654L1.13679 4.42517C0.767532 4.05544 0.973046 3.42293 1.48911 3.34086L3.26364 3.05863C3.46568 3.0265 3.64018 2.89972 3.73317 2.7175L4.54994 1.11703Z" fill="#F5B000"/>
<path d="M14.7902 1.11703C15.0277 0.651589 15.6928 0.65159 15.9303 1.11703L16.7471 2.7175C16.8401 2.89972 17.0146 3.0265 17.2166 3.05863L18.9911 3.34086C19.5072 3.42293 19.7127 4.05544 19.3434 4.42517L18.0737 5.69654C17.9291 5.84129 17.8625 6.04643 17.8944 6.24851L18.1743 8.0234C18.2557 8.53957 17.7177 8.93047 17.2519 8.69354L15.6504 7.87882C15.4681 7.78606 15.2524 7.78606 15.07 7.87882L13.4685 8.69354C13.0028 8.93047 12.4647 8.53956 12.5462 8.0234L12.8261 6.24851C12.858 6.04643 12.7913 5.84129 12.6468 5.69654L11.377 4.42517C11.0078 4.05544 11.2133 3.42293 11.7293 3.34086L13.5039 3.05863C13.7059 3.0265 13.8804 2.89972 13.9734 2.7175L14.7902 1.11703Z" fill="#F5B000"/>
<path d="M25.0299 1.11703C25.2675 0.651589 25.9325 0.65159 26.17 1.11703L26.9868 2.7175C27.0798 2.89972 27.2543 3.0265 27.4563 3.05863L29.2309 3.34086C29.7469 3.42293 29.9524 4.05544 29.5832 4.42517L28.3135 5.69654C28.1689 5.84129 28.1022 6.04643 28.1341 6.24851L28.4141 8.0234C28.4955 8.53957 27.9574 8.93047 27.4917 8.69354L25.8902 7.87882C25.7078 7.78606 25.4921 7.78606 25.3098 7.87882L23.7083 8.69354C23.2425 8.93047 22.7045 8.53956 22.7859 8.0234L23.0659 6.24851C23.0977 6.04643 23.0311 5.84129 22.8865 5.69654L21.6168 4.42517C21.2475 4.05544 21.453 3.42293 21.9691 3.34086L23.7436 3.05863C23.9457 3.0265 24.1202 2.89972 24.2132 2.7175L25.0299 1.11703Z" fill="#F5B000"/>
<path d="M35.2702 1.11703C35.5077 0.651589 36.1727 0.65159 36.4103 1.11703L37.227 2.7175C37.32 2.89972 37.4945 3.0265 37.6966 3.05863L39.4711 3.34086C39.9872 3.42293 40.1927 4.05544 39.8234 4.42517L38.5537 5.69654C38.4091 5.84129 38.3425 6.04643 38.3743 6.24851L38.6543 8.0234C38.7357 8.53957 38.1977 8.93047 37.7319 8.69354L36.1304 7.87882C35.9481 7.78606 35.7324 7.78606 35.55 7.87882L33.9485 8.69354C33.4828 8.93047 32.9447 8.53956 33.0261 8.0234L33.3061 6.24851C33.338 6.04643 33.2713 5.84129 33.1267 5.69654L31.857 4.42517C31.4877 4.05544 31.6933 3.42293 32.2093 3.34086L33.9839 3.05863C34.1859 3.0265 34.3604 2.89972 34.4534 2.7175L35.2702 1.11703Z" fill="#F5B000"/>
<path d="M45.5099 1.11703C45.7474 0.651589 46.4125 0.65159 46.65 1.11703L47.4668 2.7175C47.5598 2.89972 47.7343 3.0265 47.9363 3.05863L49.7109 3.34086C50.2269 3.42293 50.4324 4.05544 50.0632 4.42517L48.7934 5.69654C48.6489 5.84129 48.5822 6.04643 48.6141 6.24851L48.894 8.0234C48.9754 8.53957 48.4374 8.93047 47.9717 8.69354L46.3701 7.87882C46.1878 7.78606 45.9721 7.78606 45.7898 7.87882L44.1883 8.69354C43.7225 8.93047 43.1845 8.53956 43.2659 8.0234L43.5458 6.24851C43.5777 6.04643 43.5111 5.84129 43.3665 5.69654L42.0968 4.42517C41.7275 4.05544 41.933 3.42293 42.4491 3.34086L44.2236 3.05863C44.4256 3.0265 44.6001 2.89972 44.6931 2.7175L45.5099 1.11703Z" fill="#F5B000"/>
</svg>
