<svg width="13" height="10" viewBox="0 0 13 10" fill="none" xmlns="http://www.w3.org/2000/svg">
<path d="M0.759966 5.86255H1.51993C1.93965 5.86255 2.2799 6.19065 2.2799 6.59537V8.06102C2.2799 8.46575 1.93965 8.79385 1.51993 8.79385H0.759966C0.340248 8.79385 0 8.46575 0 8.06102V6.59537C0 6.19065 0.340248 5.86255 0.759966 5.86255V5.86255Z" fill="#0B0D0F"/>
<path d="M4.01729 4.55981H4.77726C5.19697 4.55981 5.53722 4.88791 5.53722 5.29264V8.06109C5.53722 8.46581 5.19697 8.79391 4.77726 8.79391H4.01729C3.59757 8.79391 3.25732 8.46581 3.25732 8.06109V5.29264C3.25732 4.88791 3.59757 4.55981 4.01729 4.55981Z" fill="#0B0D0F"/>
<path opacity="0.2" d="M7.27413 2.60559H8.03409C8.45381 2.60559 8.79406 2.93369 8.79406 3.33842V8.06106C8.79406 8.46579 8.45381 8.79389 8.03409 8.79389H7.27413C6.85441 8.79389 6.51416 8.46579 6.51416 8.06106V3.33842C6.51416 2.93369 6.85441 2.60559 7.27413 2.60559Z" fill="#0B0D0F"/>
<path opacity="0.2" d="M10.531 0.651428H11.2909C11.7106 0.651428 12.0509 0.979525 12.0509 1.38425V8.0611C12.0509 8.46582 11.7106 8.79392 11.2909 8.79392H10.531C10.1112 8.79392 9.771 8.46582 9.771 8.0611V1.38425C9.771 0.979525 10.1112 0.651428 10.531 0.651428Z" fill="#0B0D0F"/>
</svg>
