<svg width="9" height="8" viewBox="0 0 9 8" fill="none" xmlns="http://www.w3.org/2000/svg">
<path d="M3.60121 0.348963C3.83874 -0.116477 4.5038 -0.116477 4.74133 0.348964L5.5581 1.94943C5.65109 2.13165 5.82559 2.25843 6.02763 2.29057L7.80216 2.57279C8.31822 2.65487 8.52374 3.28737 8.15448 3.6571L6.88474 4.92847C6.74017 5.07322 6.67352 5.27836 6.70539 5.48044L6.98534 7.25533C7.06676 7.7715 6.52871 8.16241 6.06297 7.92548L4.46146 7.11076C4.27912 7.018 4.06342 7.018 3.88108 7.11076L2.27957 7.92548C1.81382 8.16241 1.27578 7.7715 1.3572 7.25533L1.63715 5.48044C1.66902 5.27836 1.60236 5.07322 1.4578 4.92847L0.188061 3.6571C-0.181198 3.28737 0.0243155 2.65487 0.540377 2.57279L2.31491 2.29057C2.51694 2.25843 2.69145 2.13165 2.78444 1.94943L3.60121 0.348963Z" fill="#F5B000"/>
</svg>
