<svg width="18" height="17" viewBox="0 0 18 17" fill="none" xmlns="http://www.w3.org/2000/svg">
<path d="M8.15988 0.392889C8.4271 -0.130732 9.17529 -0.130731 9.44251 0.392889L11.6564 4.73099C11.761 4.93599 11.9573 5.07862 12.1846 5.11477L16.9945 5.87974C17.5751 5.97208 17.8063 6.68365 17.3909 7.0996L13.9492 10.5457C13.7866 10.7085 13.7116 10.9393 13.7474 11.1666L14.5063 15.9775C14.5978 16.5582 13.9925 16.998 13.4686 16.7314L9.12765 14.5231C8.92252 14.4188 8.67986 14.4188 8.47473 14.5231L4.1338 16.7314C3.60983 16.998 3.00454 16.5582 3.09613 15.9775L3.85493 11.1666C3.89079 10.9393 3.81581 10.7085 3.65317 10.5457L0.211518 7.09959C-0.203899 6.68364 0.0273036 5.97208 0.607872 5.87974L5.41777 5.11477C5.64507 5.07862 5.84138 4.93599 5.946 4.73099L8.15988 0.392889Z" fill="#F5B000"/>
</svg>
