<svg width="50" height="50" viewBox="0 0 50 50" fill="none" xmlns="http://www.w3.org/2000/svg">
<path d="M23.6603 0.314128C24.1856 -0.104751 24.9307 -0.104751 25.456 0.314129L28.2616 2.55157C28.6265 2.84252 29.1097 2.93864 29.5581 2.80945L33.0065 1.81601C33.652 1.63003 34.3404 1.91517 34.6654 2.50318L36.4013 5.64399C36.627 6.05241 37.0367 6.32613 37.5004 6.37838L41.0664 6.78018C41.734 6.85541 42.2609 7.38228 42.3361 8.04989L42.7379 11.6159C42.7902 12.0796 43.0639 12.4893 43.4723 12.715L46.6131 14.4509C47.2011 14.7759 47.4863 15.4643 47.3003 16.1098L46.3068 19.5582C46.1777 20.0066 46.2738 20.4898 46.5647 20.8546L48.8022 23.6603C49.221 24.1856 49.221 24.9307 48.8022 25.456L46.5647 28.2616C46.2738 28.6265 46.1777 29.1097 46.3068 29.5581L47.3003 33.0065C47.4863 33.652 47.2011 34.3404 46.6131 34.6654L43.4723 36.4013C43.0639 36.627 42.7902 37.0367 42.7379 37.5004L42.3361 41.0664C42.2609 41.734 41.734 42.2609 41.0664 42.3361L37.5004 42.7379C37.0367 42.7902 36.627 43.0639 36.4013 43.4723L34.6654 46.6131C34.3404 47.2011 33.652 47.4863 33.0064 47.3003L29.5581 46.3068C29.1097 46.1777 28.6265 46.2738 28.2616 46.5647L25.456 48.8022C24.9307 49.221 24.1856 49.221 23.6603 48.8022L20.8546 46.5647C20.4898 46.2738 20.0066 46.1777 19.5582 46.3068L16.1098 47.3003C15.4643 47.4863 14.7759 47.2011 14.4509 46.6131L12.715 43.4723C12.4893 43.0639 12.0796 42.7902 11.6159 42.7379L8.04989 42.3361C7.38228 42.2609 6.85541 41.734 6.78018 41.0664L6.37838 37.5004C6.32613 37.0367 6.05241 36.627 5.64399 36.4013L2.50318 34.6654C1.91517 34.3404 1.63003 33.652 1.81601 33.0064L2.80945 29.5581C2.93864 29.1097 2.84252 28.6265 2.55157 28.2616L0.314128 25.456C-0.104751 24.9307 -0.104751 24.1856 0.314129 23.6603L2.55157 20.8546C2.84252 20.4898 2.93864 20.0066 2.80945 19.5582L1.81601 16.1098C1.63003 15.4643 1.91517 14.7759 2.50318 14.4509L5.64399 12.715C6.05241 12.4893 6.32613 12.0796 6.37838 11.6159L6.78018 8.04989C6.85541 7.38228 7.38228 6.85541 8.04989 6.78018L11.6159 6.37838C12.0796 6.32613 12.4893 6.05241 12.715 5.64399L14.4509 2.50318C14.7759 1.91517 15.4643 1.63003 16.1098 1.81601L19.5582 2.80945C20.0066 2.93864 20.4898 2.84252 20.8546 2.55157L23.6603 0.314128Z" fill="url(#paint0_linear_337_2179)"/>
<defs>
<linearGradient id="paint0_linear_337_2179" x1="7.38481" y1="31.8115" x2="46.7448" y2="15.4915" gradientUnits="userSpaceOnUse">
<stop stop-color="#D2331F"/>
<stop offset="1" stop-color="#FAAF8C"/>
</linearGradient>
</defs>
</svg>
