<svg width="61" height="61" viewBox="0 0 61 61" fill="none" xmlns="http://www.w3.org/2000/svg">
<path d="M29.5698 0.501465C30.0074 0.152556 30.6282 0.152734 31.0659 0.501465L34.8608 3.52783C35.2865 3.86727 35.8504 3.97933 36.3735 3.82861L41.0376 2.48486C41.5754 2.33015 42.1487 2.56825 42.4194 3.05811L44.7671 7.30518C45.0304 7.7816 45.5084 8.10158 46.0493 8.1626L50.8726 8.70557C51.4289 8.76829 51.8675 9.20785 51.9302 9.76416L52.4741 14.5864C52.5351 15.1273 52.8542 15.6053 53.3306 15.8687L57.5786 18.2163C58.0686 18.4871 58.3059 19.0611 58.1509 19.5991L56.8081 24.2632C56.6575 24.7863 56.7695 25.3503 57.1089 25.7759L60.1343 29.5698C60.4833 30.0075 60.4832 30.6282 60.1343 31.0659L57.1089 34.8608C56.7694 35.2865 56.6574 35.8504 56.8081 36.3735L58.1509 41.0376C58.3057 41.5754 58.0684 42.1486 57.5786 42.4194L53.3306 44.7671C52.8542 45.0304 52.5352 45.5085 52.4741 46.0493L51.9302 50.8726C51.8674 51.4288 51.4288 51.8674 50.8726 51.9302L46.0493 52.4741C45.5085 52.5352 45.0304 52.8542 44.7671 53.3306L42.4194 57.5786C42.1486 58.0684 41.5754 58.3057 41.0376 58.1509L36.3735 56.8081C35.8504 56.6574 35.2865 56.7694 34.8608 57.1089L31.0659 60.1343C30.6282 60.4832 30.0075 60.4833 29.5698 60.1343L25.7759 57.1089C25.3503 56.7695 24.7863 56.6575 24.2632 56.8081L19.5991 58.1509C19.0611 58.3059 18.4871 58.0686 18.2163 57.5786L15.8687 53.3306C15.6053 52.8542 15.1273 52.5351 14.5864 52.4741L9.76416 51.9302C9.20784 51.8675 8.76828 51.4289 8.70557 50.8726L8.1626 46.0493C8.10158 45.5084 7.7816 45.0304 7.30518 44.7671L3.05811 42.4194C2.56825 42.1487 2.33015 41.5754 2.48486 41.0376L3.82861 36.3735C3.97933 35.8504 3.86727 35.2865 3.52783 34.8608L0.501465 31.0659C0.152734 30.6282 0.152556 30.0074 0.501465 29.5698L3.52783 25.7759C3.86721 25.3503 3.97921 24.7863 3.82861 24.2632L2.48486 19.5991C2.32992 19.0612 2.56813 18.4871 3.05811 18.2163L7.30518 15.8687C7.78167 15.6053 8.10164 15.1274 8.1626 14.5864L8.70557 9.76416C8.76825 9.20782 9.20782 8.76825 9.76416 8.70557L14.5864 8.1626C15.1274 8.10164 15.6053 7.78167 15.8687 7.30518L18.2163 3.05811C18.4871 2.56813 19.0612 2.32992 19.5991 2.48486L24.2632 3.82861C24.7863 3.97921 25.3503 3.86721 25.7759 3.52783L29.5698 0.501465Z" stroke="#FFC5BF" stroke-width="0.48"/>
</svg>
