<svg width="34" height="38" viewBox="0 0 34 38" fill="none" xmlns="http://www.w3.org/2000/svg">
<path d="M22.1914 0.934814C24.5606 0.934814 26.4814 2.85568 26.4814 5.22485C26.4814 5.40846 26.4725 5.59015 26.457 5.76978C27.0099 5.44421 27.7202 5.48822 28.2295 5.90356L28.3477 6.01001L29.2295 6.89185C29.8187 7.48114 29.8356 8.42394 29.2832 9.0354H30.5312C31.7357 9.0354 32.7119 10.0116 32.7119 11.2161V17.4465C32.7119 18.5452 31.8996 19.4516 30.8428 19.6028V34.2708C30.8425 35.475 29.8664 36.4514 28.6621 36.4514H4.98438C3.7802 36.4513 2.80396 35.4749 2.80371 34.2708V19.6028C1.74707 19.4514 0.93457 18.545 0.93457 17.4465V11.2161C0.93457 10.0117 1.91084 9.03545 3.11523 9.0354H4.08789C3.53513 8.42392 3.55218 7.48126 4.1416 6.89185L5.02246 6.01099L5.14062 5.90356C5.74855 5.40788 6.64306 5.44042 7.21387 6.00024C7.18258 5.7461 7.16505 5.4874 7.16504 5.22485C7.16504 2.85576 9.08601 0.934935 11.4551 0.934814C13.7269 0.934853 15.7148 2.13748 16.8232 3.93677C17.9316 2.13742 19.9196 0.934884 22.1914 0.934814Z" fill="#FFEA3D" stroke="black" stroke-width="1.86928"/>
</svg>
