<svg width="68" height="41" viewBox="0 0 68 41" fill="none" xmlns="http://www.w3.org/2000/svg">
<mask id="path-1-outside-1_337_2151" maskUnits="userSpaceOnUse" x="-0.507812" y="-0.507568" width="68" height="41" fill="black">
<rect fill="white" x="-0.507812" y="-0.507568" width="68" height="41"/>
<path d="M62.9847 17.8287C63.3288 17.8287 63.6078 18.1077 63.6078 18.4518V22.1953C63.6078 22.5394 63.3288 22.8184 62.9847 22.8184H36.2189V4.8587C36.2189 4.51458 36.4979 4.23561 36.842 4.23561H62.7757C63.1198 4.23561 63.3988 4.51458 63.3988 4.8587V8.6578C63.3988 9.00193 63.1198 9.2809 62.7757 9.2809H42.448V17.8287H62.9847ZM35.6276 33.6873C35.2834 33.6873 35.0045 33.4083 35.0045 33.0642V28.5308H64.5575V33.0642C64.5575 33.4083 64.2785 33.6873 63.9344 33.6873H35.6276Z"/>
<path d="M30.0612 2.69284C30.4054 2.69284 30.6843 2.97181 30.6843 3.31593V4.73597C30.6843 6.77911 30.6843 9.78126 30.1269 13.4367L23.8421 12.9502C24.1626 10.8376 24.288 9.08632 24.3438 7.57134H5.65243C5.30831 7.57134 5.02934 7.29237 5.02934 6.94825V3.31593C5.02934 2.97181 5.30831 2.69284 5.65243 2.69284H30.0612ZM3.31723 19.3576C2.97311 19.3576 2.69414 19.0786 2.69414 18.7345V15.1717C2.69414 14.8275 2.97311 14.5486 3.31723 14.5486H12.9725V9.82296H19.2434V14.5486H32.5915V19.3576H3.31723ZM5.59669 25.8484C5.25257 25.8484 4.9736 25.5694 4.9736 25.2253V21.5235C4.9736 21.1793 5.25256 20.9004 5.59669 20.9004H30.6425V31.3106H11.2584V32.7978H31.6319V36.9559C31.6319 37.3 31.353 37.579 31.0088 37.579H5.61063C5.2665 37.579 4.98753 37.3 4.98753 36.9559V27.7362C4.98753 27.3921 5.2665 27.1132 5.61063 27.1132H24.3995V25.8484H5.59669Z"/>
<path d="M64.7583 28.3294V33.2664C64.7583 33.6105 64.4793 33.8895 64.1352 33.8895H35.4255C35.0814 33.8895 34.8024 33.6105 34.8024 33.2664V28.3294H64.7583ZM35.2064 32.8635C35.2064 33.2076 35.4854 33.4866 35.8295 33.4866H63.7332C64.0773 33.4866 64.3563 33.2076 64.3563 32.8635V28.7323H35.2064V32.8635ZM62.9781 4.03526C63.3222 4.03526 63.6012 4.31423 63.6012 4.65835V8.85825C63.6012 9.20238 63.3222 9.48135 62.9781 9.48135H42.6495V17.6279H63.187C63.5311 17.6279 63.8101 17.9068 63.8101 18.251V22.3958C63.8101 22.74 63.5311 23.0189 63.187 23.0189H36.0167V4.65836C36.0167 4.31423 36.2956 4.03526 36.6398 4.03526H62.9781ZM36.4206 22.618H62.783C63.1271 22.618 63.4061 22.339 63.4061 21.9949V18.6539C63.4061 18.3097 63.1271 18.0308 62.783 18.0308H42.2456V9.08041H62.5741C62.9183 9.08041 63.1972 8.80144 63.1972 8.45731V5.05929C63.1972 4.71517 62.9183 4.4362 62.5741 4.4362H37.0437C36.6996 4.4362 36.4206 4.71517 36.4206 5.05929V22.618Z"/>
<path d="M30.8436 20.6998V31.5114H11.4593V32.5963H31.8328V37.1579C31.8328 37.502 31.5539 37.781 31.2097 37.781H5.4082C5.06407 37.781 4.7851 37.502 4.7851 37.1579V27.5355C4.7851 27.1913 5.06407 26.9124 5.4082 26.9124H24.197V26.0496H5.3944C5.05028 26.0496 4.77131 25.7706 4.77131 25.4265V21.3229C4.77131 20.9787 5.05028 20.6998 5.3944 20.6998H30.8436ZM5.17527 25.0236C5.17527 25.3677 5.45424 25.6467 5.79836 25.6467H24.6009V27.3153H5.81216C5.46803 27.3153 5.18906 27.5942 5.18906 27.9384V36.755C5.18906 37.0991 5.46803 37.378 5.81216 37.378H30.8077C31.1519 37.378 31.4308 37.0991 31.4308 36.755V32.9992H11.0574V31.1085H30.4416V21.1007H5.79837C5.45424 21.1007 5.17527 21.3797 5.17527 21.7238V25.0236ZM19.446 9.62089V14.3476H32.7933V19.5579H3.11528C2.77116 19.5579 2.49219 19.2789 2.49219 18.9348V14.9707C2.49219 14.6266 2.77116 14.3476 3.11528 14.3476H12.7698V9.62089H19.446ZM13.1737 14.7505H3.51925C3.17512 14.7505 2.89615 15.0295 2.89615 15.3736V18.5339C2.89615 18.878 3.17512 19.1569 3.51924 19.1569H32.3893V14.7505H19.042V10.0238H13.1737V14.7505ZM30.483 3.51647C30.483 3.17234 30.204 2.89337 29.8599 2.89337H5.85354C5.50942 2.89337 5.23045 3.17234 5.23045 3.51646V6.74743C5.23045 7.09155 5.50941 7.37052 5.85354 7.37052H24.5536L24.5457 7.57885C24.4917 9.04828 24.3672 10.7393 24.0689 12.7655L29.951 13.2195C30.4778 9.66496 30.483 6.74387 30.483 4.7369V3.51647ZM30.887 4.7369C30.887 6.78122 30.8871 9.79622 30.3273 13.4672L30.2978 13.6519L30.1106 13.6381L23.8265 13.1507L23.6097 13.135L23.6432 12.9208C23.9477 10.9138 24.0726 9.23393 24.1319 7.77343H5.45155C5.10742 7.77343 4.82845 7.49446 4.82845 7.15033V3.11553C4.82845 2.7714 5.10742 2.49243 5.45155 2.49243H30.2639C30.608 2.49243 30.887 2.7714 30.887 3.11553V4.7369Z"/>
</mask>
<path d="M62.9847 17.8287C63.3288 17.8287 63.6078 18.1077 63.6078 18.4518V22.1953C63.6078 22.5394 63.3288 22.8184 62.9847 22.8184H36.2189V4.8587C36.2189 4.51458 36.4979 4.23561 36.842 4.23561H62.7757C63.1198 4.23561 63.3988 4.51458 63.3988 4.8587V8.6578C63.3988 9.00193 63.1198 9.2809 62.7757 9.2809H42.448V17.8287H62.9847ZM35.6276 33.6873C35.2834 33.6873 35.0045 33.4083 35.0045 33.0642V28.5308H64.5575V33.0642C64.5575 33.4083 64.2785 33.6873 63.9344 33.6873H35.6276Z" fill="white"/>
<path d="M30.0612 2.69284C30.4054 2.69284 30.6843 2.97181 30.6843 3.31593V4.73597C30.6843 6.77911 30.6843 9.78126 30.1269 13.4367L23.8421 12.9502C24.1626 10.8376 24.288 9.08632 24.3438 7.57134H5.65243C5.30831 7.57134 5.02934 7.29237 5.02934 6.94825V3.31593C5.02934 2.97181 5.30831 2.69284 5.65243 2.69284H30.0612ZM3.31723 19.3576C2.97311 19.3576 2.69414 19.0786 2.69414 18.7345V15.1717C2.69414 14.8275 2.97311 14.5486 3.31723 14.5486H12.9725V9.82296H19.2434V14.5486H32.5915V19.3576H3.31723ZM5.59669 25.8484C5.25257 25.8484 4.9736 25.5694 4.9736 25.2253V21.5235C4.9736 21.1793 5.25256 20.9004 5.59669 20.9004H30.6425V31.3106H11.2584V32.7978H31.6319V36.9559C31.6319 37.3 31.353 37.579 31.0088 37.579H5.61063C5.2665 37.579 4.98753 37.3 4.98753 36.9559V27.7362C4.98753 27.3921 5.2665 27.1132 5.61063 27.1132H24.3995V25.8484H5.59669Z" fill="white"/>
<path d="M64.7583 28.3294V33.2664C64.7583 33.6105 64.4793 33.8895 64.1352 33.8895H35.4255C35.0814 33.8895 34.8024 33.6105 34.8024 33.2664V28.3294H64.7583ZM35.2064 32.8635C35.2064 33.2076 35.4854 33.4866 35.8295 33.4866H63.7332C64.0773 33.4866 64.3563 33.2076 64.3563 32.8635V28.7323H35.2064V32.8635ZM62.9781 4.03526C63.3222 4.03526 63.6012 4.31423 63.6012 4.65835V8.85825C63.6012 9.20238 63.3222 9.48135 62.9781 9.48135H42.6495V17.6279H63.187C63.5311 17.6279 63.8101 17.9068 63.8101 18.251V22.3958C63.8101 22.74 63.5311 23.0189 63.187 23.0189H36.0167V4.65836C36.0167 4.31423 36.2956 4.03526 36.6398 4.03526H62.9781ZM36.4206 22.618H62.783C63.1271 22.618 63.4061 22.339 63.4061 21.9949V18.6539C63.4061 18.3097 63.1271 18.0308 62.783 18.0308H42.2456V9.08041H62.5741C62.9183 9.08041 63.1972 8.80144 63.1972 8.45731V5.05929C63.1972 4.71517 62.9183 4.4362 62.5741 4.4362H37.0437C36.6996 4.4362 36.4206 4.71517 36.4206 5.05929V22.618Z" fill="white"/>
<path d="M30.8436 20.6998V31.5114H11.4593V32.5963H31.8328V37.1579C31.8328 37.502 31.5539 37.781 31.2097 37.781H5.4082C5.06407 37.781 4.7851 37.502 4.7851 37.1579V27.5355C4.7851 27.1913 5.06407 26.9124 5.4082 26.9124H24.197V26.0496H5.3944C5.05028 26.0496 4.77131 25.7706 4.77131 25.4265V21.3229C4.77131 20.9787 5.05028 20.6998 5.3944 20.6998H30.8436ZM5.17527 25.0236C5.17527 25.3677 5.45424 25.6467 5.79836 25.6467H24.6009V27.3153H5.81216C5.46803 27.3153 5.18906 27.5942 5.18906 27.9384V36.755C5.18906 37.0991 5.46803 37.378 5.81216 37.378H30.8077C31.1519 37.378 31.4308 37.0991 31.4308 36.755V32.9992H11.0574V31.1085H30.4416V21.1007H5.79837C5.45424 21.1007 5.17527 21.3797 5.17527 21.7238V25.0236ZM19.446 9.62089V14.3476H32.7933V19.5579H3.11528C2.77116 19.5579 2.49219 19.2789 2.49219 18.9348V14.9707C2.49219 14.6266 2.77116 14.3476 3.11528 14.3476H12.7698V9.62089H19.446ZM13.1737 14.7505H3.51925C3.17512 14.7505 2.89615 15.0295 2.89615 15.3736V18.5339C2.89615 18.878 3.17512 19.1569 3.51924 19.1569H32.3893V14.7505H19.042V10.0238H13.1737V14.7505ZM30.483 3.51647C30.483 3.17234 30.204 2.89337 29.8599 2.89337H5.85354C5.50942 2.89337 5.23045 3.17234 5.23045 3.51646V6.74743C5.23045 7.09155 5.50941 7.37052 5.85354 7.37052H24.5536L24.5457 7.57885C24.4917 9.04828 24.3672 10.7393 24.0689 12.7655L29.951 13.2195C30.4778 9.66496 30.483 6.74387 30.483 4.7369V3.51647ZM30.887 4.7369C30.887 6.78122 30.8871 9.79622 30.3273 13.4672L30.2978 13.6519L30.1106 13.6381L23.8265 13.1507L23.6097 13.135L23.6432 12.9208C23.9477 10.9138 24.0726 9.23393 24.1319 7.77343H5.45155C5.10742 7.77343 4.82845 7.49446 4.82845 7.15033V3.11553C4.82845 2.7714 5.10742 2.49243 5.45155 2.49243H30.2639C30.608 2.49243 30.887 2.7714 30.887 3.11553V4.7369Z" fill="white"/>
<path d="M62.9847 17.8287C63.3288 17.8287 63.6078 18.1077 63.6078 18.4518V22.1953C63.6078 22.5394 63.3288 22.8184 62.9847 22.8184H36.2189V4.8587C36.2189 4.51458 36.4979 4.23561 36.842 4.23561H62.7757C63.1198 4.23561 63.3988 4.51458 63.3988 4.8587V8.6578C63.3988 9.00193 63.1198 9.2809 62.7757 9.2809H42.448V17.8287H62.9847ZM35.6276 33.6873C35.2834 33.6873 35.0045 33.4083 35.0045 33.0642V28.5308H64.5575V33.0642C64.5575 33.4083 64.2785 33.6873 63.9344 33.6873H35.6276Z" stroke="black" stroke-width="4.98476" mask="url(#path-1-outside-1_337_2151)"/>
<path d="M30.0612 2.69284C30.4054 2.69284 30.6843 2.97181 30.6843 3.31593V4.73597C30.6843 6.77911 30.6843 9.78126 30.1269 13.4367L23.8421 12.9502C24.1626 10.8376 24.288 9.08632 24.3438 7.57134H5.65243C5.30831 7.57134 5.02934 7.29237 5.02934 6.94825V3.31593C5.02934 2.97181 5.30831 2.69284 5.65243 2.69284H30.0612ZM3.31723 19.3576C2.97311 19.3576 2.69414 19.0786 2.69414 18.7345V15.1717C2.69414 14.8275 2.97311 14.5486 3.31723 14.5486H12.9725V9.82296H19.2434V14.5486H32.5915V19.3576H3.31723ZM5.59669 25.8484C5.25257 25.8484 4.9736 25.5694 4.9736 25.2253V21.5235C4.9736 21.1793 5.25256 20.9004 5.59669 20.9004H30.6425V31.3106H11.2584V32.7978H31.6319V36.9559C31.6319 37.3 31.353 37.579 31.0088 37.579H5.61063C5.2665 37.579 4.98753 37.3 4.98753 36.9559V27.7362C4.98753 27.3921 5.2665 27.1132 5.61063 27.1132H24.3995V25.8484H5.59669Z" stroke="black" stroke-width="4.98476" mask="url(#path-1-outside-1_337_2151)"/>
<path d="M64.7583 28.3294V33.2664C64.7583 33.6105 64.4793 33.8895 64.1352 33.8895H35.4255C35.0814 33.8895 34.8024 33.6105 34.8024 33.2664V28.3294H64.7583ZM35.2064 32.8635C35.2064 33.2076 35.4854 33.4866 35.8295 33.4866H63.7332C64.0773 33.4866 64.3563 33.2076 64.3563 32.8635V28.7323H35.2064V32.8635ZM62.9781 4.03526C63.3222 4.03526 63.6012 4.31423 63.6012 4.65835V8.85825C63.6012 9.20238 63.3222 9.48135 62.9781 9.48135H42.6495V17.6279H63.187C63.5311 17.6279 63.8101 17.9068 63.8101 18.251V22.3958C63.8101 22.74 63.5311 23.0189 63.187 23.0189H36.0167V4.65836C36.0167 4.31423 36.2956 4.03526 36.6398 4.03526H62.9781ZM36.4206 22.618H62.783C63.1271 22.618 63.4061 22.339 63.4061 21.9949V18.6539C63.4061 18.3097 63.1271 18.0308 62.783 18.0308H42.2456V9.08041H62.5741C62.9183 9.08041 63.1972 8.80144 63.1972 8.45731V5.05929C63.1972 4.71517 62.9183 4.4362 62.5741 4.4362H37.0437C36.6996 4.4362 36.4206 4.71517 36.4206 5.05929V22.618Z" stroke="black" stroke-width="4.98476" mask="url(#path-1-outside-1_337_2151)"/>
<path d="M30.8436 20.6998V31.5114H11.4593V32.5963H31.8328V37.1579C31.8328 37.502 31.5539 37.781 31.2097 37.781H5.4082C5.06407 37.781 4.7851 37.502 4.7851 37.1579V27.5355C4.7851 27.1913 5.06407 26.9124 5.4082 26.9124H24.197V26.0496H5.3944C5.05028 26.0496 4.77131 25.7706 4.77131 25.4265V21.3229C4.77131 20.9787 5.05028 20.6998 5.3944 20.6998H30.8436ZM5.17527 25.0236C5.17527 25.3677 5.45424 25.6467 5.79836 25.6467H24.6009V27.3153H5.81216C5.46803 27.3153 5.18906 27.5942 5.18906 27.9384V36.755C5.18906 37.0991 5.46803 37.378 5.81216 37.378H30.8077C31.1519 37.378 31.4308 37.0991 31.4308 36.755V32.9992H11.0574V31.1085H30.4416V21.1007H5.79837C5.45424 21.1007 5.17527 21.3797 5.17527 21.7238V25.0236ZM19.446 9.62089V14.3476H32.7933V19.5579H3.11528C2.77116 19.5579 2.49219 19.2789 2.49219 18.9348V14.9707C2.49219 14.6266 2.77116 14.3476 3.11528 14.3476H12.7698V9.62089H19.446ZM13.1737 14.7505H3.51925C3.17512 14.7505 2.89615 15.0295 2.89615 15.3736V18.5339C2.89615 18.878 3.17512 19.1569 3.51924 19.1569H32.3893V14.7505H19.042V10.0238H13.1737V14.7505ZM30.483 3.51647C30.483 3.17234 30.204 2.89337 29.8599 2.89337H5.85354C5.50942 2.89337 5.23045 3.17234 5.23045 3.51646V6.74743C5.23045 7.09155 5.50941 7.37052 5.85354 7.37052H24.5536L24.5457 7.57885C24.4917 9.04828 24.3672 10.7393 24.0689 12.7655L29.951 13.2195C30.4778 9.66496 30.483 6.74387 30.483 4.7369V3.51647ZM30.887 4.7369C30.887 6.78122 30.8871 9.79622 30.3273 13.4672L30.2978 13.6519L30.1106 13.6381L23.8265 13.1507L23.6097 13.135L23.6432 12.9208C23.9477 10.9138 24.0726 9.23393 24.1319 7.77343H5.45155C5.10742 7.77343 4.82845 7.49446 4.82845 7.15033V3.11553C4.82845 2.7714 5.10742 2.49243 5.45155 2.49243H30.2639C30.608 2.49243 30.887 2.7714 30.887 3.11553V4.7369Z" stroke="black" stroke-width="4.98476" mask="url(#path-1-outside-1_337_2151)"/>
</svg>
