<svg width="9" height="9" viewBox="0 0 9 9" fill="none" xmlns="http://www.w3.org/2000/svg">
<g clip-path="url(#clip0_337_2119)">
<path d="M4.09643 7.50928C4.54192 7.50928 4.90642 7.19421 4.90642 6.80911H3.28643C3.28643 6.99481 3.37177 7.1729 3.52367 7.30421C3.67558 7.43552 3.8816 7.50928 4.09643 7.50928ZM6.52641 5.40877V3.65834C6.52641 2.58358 5.86221 1.68386 4.70392 1.4458V1.20775C4.70392 0.917174 4.43257 0.682617 4.09643 0.682617C3.76028 0.682617 3.48893 0.917174 3.48893 1.20775V1.4458C2.32659 1.68386 1.66644 2.58008 1.66644 3.65834V5.40877L1.144 5.86038C0.88885 6.08094 1.06705 6.45903 1.4275 6.45903H6.7613C7.12175 6.45903 7.304 6.08094 7.04885 5.86038L6.52641 5.40877Z" fill="white"/>
<path d="M0.984375 3.31672C0.984375 2.48499 1.37716 1.76157 2.09024 1.36499" stroke="white" stroke-width="0.341333" stroke-linecap="round"/>
<path d="M7.25 3.31672C7.25 2.48499 6.85721 1.76157 6.14414 1.36499" stroke="white" stroke-width="0.341333" stroke-linecap="round"/>
</g>
<defs>
<clipPath id="clip0_337_2119">
<rect width="8.192" height="8.192" fill="white"/>
</clipPath>
</defs>
</svg>
