<svg width="6" height="7" viewBox="0 0 6 7" fill="none" xmlns="http://www.w3.org/2000/svg">
<path d="M5.47575 0H4.25947C4.21212 0 4.17224 0.0398781 4.17224 0.0872332L4.16476 4.42397C4.16476 4.95734 3.7934 5.72998 2.78149 5.72998C1.76959 5.72998 1.39822 4.95734 1.39822 4.42397V0.0872332C1.39822 0.0398781 1.35835 0 1.31099 0H0.0872338C0.0398786 0 0 0.0398781 0 0.0872332V4.37412C0 5.9194 1.01938 6.94626 2.39019 6.94626C2.39019 6.94626 3.55413 7.02352 4.25449 6.25088V6.72942C4.25449 6.77678 4.29437 6.81665 4.34172 6.81665H5.47326C5.52062 6.81665 5.56049 6.77678 5.56049 6.72942V0.0872332C5.56049 0.0398781 5.52062 0 5.47326 0H5.47575Z" fill="#935227"/>
</svg>
