<svg width="7" height="10" viewBox="0 0 7 10" fill="none" xmlns="http://www.w3.org/2000/svg">
<path d="M6.22845 0.0299085H6.0814C5.80973 0.039878 5.21904 0.122127 4.75047 0.638049C4.75047 0.638049 4.11242 0 2.76903 0C1.22127 0 0 0.917195 0 2.45748C0 2.98836 0.174466 3.93796 1.0468 4.52865C1.0468 4.52865 0.0523416 5.00968 0.0523416 6.28328V6.85404C0.0523416 6.90388 0.0922174 6.94127 0.139573 6.94127H4.1523C4.65327 6.94127 4.96482 7.34254 4.96482 7.73883C4.96482 7.73883 5.04208 8.34448 4.2171 8.80806C4.2171 8.80806 4.14483 8.85043 4.1847 8.92271C4.22458 8.99499 4.72305 9.90221 4.72305 9.90221C4.72305 9.90221 4.77041 9.98197 4.8402 9.93461C4.8402 9.93461 6.18608 9.32648 6.18608 7.7488C6.18608 7.00607 5.69259 5.78481 4.1523 5.78481H1.37828C1.37828 5.78481 1.48047 4.97229 2.48989 4.97229H2.84629C4.44391 4.97229 5.54803 3.89808 5.54803 2.58709C5.54803 2.58709 5.58043 1.93658 5.3287 1.42315C5.3287 1.42315 5.71253 1.15646 6.21848 1.20631C6.21848 1.20631 6.31568 1.20631 6.31568 1.11908V0.117142C6.31568 0.0697866 6.27581 0.0299085 6.22845 0.0299085ZM2.72915 3.76349C2.03378 3.76349 1.39822 3.28745 1.39822 2.48241C1.39822 1.91664 1.79451 1.20631 2.72915 1.20631C3.87315 1.20631 4.15978 2.02132 4.15978 2.43007C4.16476 3.0407 3.82081 3.76349 2.72915 3.76349Z" fill="#31B4DD"/>
</svg>
