<svg width="6" height="8" viewBox="0 0 6 8" fill="none" xmlns="http://www.w3.org/2000/svg">
<path d="M2.78154 0H2.76907C0.0349357 0.0124619 4.28399e-05 2.44004 4.28399e-05 2.56715V4.50123C4.28399e-05 4.50123 -0.0448203 7.06838 2.76907 7.07586H2.78154C5.51567 7.06838 5.55057 4.63333 5.55057 4.50622V2.57213C5.55057 2.57213 5.59045 0.00498476 2.78154 0ZM4.15484 4.56105C4.15484 5.09442 3.78596 5.86706 2.77157 5.86706C1.75717 5.86706 1.3883 5.09442 1.3883 4.56105V2.51979C1.3883 2.16338 1.62757 1.21379 2.77157 1.21379C3.34481 1.21379 3.68876 1.45056 3.89314 1.7322C4.09502 2.01633 4.15484 2.34034 4.15484 2.51979V4.56105Z" fill="#935227"/>
</svg>
