<svg width="6" height="7" viewBox="0 0 6 7" fill="none" xmlns="http://www.w3.org/2000/svg">
<path d="M5.55551 2.57446V6.85387C5.55551 6.90122 5.51563 6.9411 5.46828 6.9411H4.24452C4.19717 6.9411 4.15729 6.90122 4.15729 6.85387V2.52212C4.15729 1.98875 3.78094 1.21611 2.77402 1.21611C1.7671 1.21611 1.39075 1.98875 1.39075 2.52212V6.85387C1.39075 6.90122 1.35087 6.9411 1.30351 6.9411H0.0872328C0.0373853 6.9411 0 6.90122 0 6.85387V0.211683C0 0.164328 0.0373853 0.12445 0.0872328 0.12445H1.21129C1.25865 0.12445 1.29853 0.164328 1.29853 0.211683V0.697696C2.00138 -0.077433 3.16283 0.00232306 3.16283 0.00232306C4.53363 0.00232306 5.55551 1.02918 5.55551 2.57446Z" fill="#88CC2F"/>
</svg>
