<svg width="6" height="8" viewBox="0 0 6 8" fill="none" xmlns="http://www.w3.org/2000/svg">
<path d="M2.73414 0.000364535C2.73414 0.000364535 1.87676 -0.0345287 0.672943 0.424069L0.498475 0.48887C0.453613 0.506317 0.428689 0.553672 0.446136 0.598535L0.797562 1.59299C0.797562 1.59299 0.824977 1.68521 0.942118 1.63287C1.05926 1.58053 1.84436 1.20418 2.73414 1.20418C3.85322 1.20418 4.07255 1.89208 4.07255 2.73699C4.07255 2.73699 3.42951 2.22356 2.49487 2.22356C1.18886 2.22356 0 3.06848 0 4.66111C0 5.66055 0.578233 7.09616 2.50733 7.09616C2.50733 7.09616 3.39711 7.13604 4.11741 6.55033V6.87434C4.11741 6.87434 4.12488 6.95908 4.20215 6.95908H5.28135C5.28135 6.95908 5.36609 6.9541 5.36609 6.87434V2.53013C5.36609 2.53013 5.35861 0.000364535 2.73414 0.000364535ZM2.68928 5.91976C2.01384 5.91976 1.39075 5.44621 1.39075 4.64117C1.39075 4.0754 1.77208 3.36009 2.68928 3.36009C3.80088 3.36009 4.08501 4.18008 4.08501 4.58883C4.08002 5.19946 3.74106 5.91976 2.68928 5.91976Z" fill="#FFC400"/>
</svg>
