<svg width="6" height="10" viewBox="0 0 6 10" fill="none" xmlns="http://www.w3.org/2000/svg">
<path d="M3.09304 0C2.2232 0 1.68485 0.319024 1.30102 0.70285V0.211852C1.30102 0.164497 1.26114 0.124619 1.21379 0.124619H0.0872328C0.0398777 0.124619 0 0.164497 0 0.211852V9.69535C0 9.7427 0.0398777 9.78009 0.0872328 9.78009H1.30351C1.35336 9.78009 1.39075 9.7427 1.39075 9.69535C1.39075 9.69535 1.40819 8.02296 1.39075 6.46523C1.76959 6.80918 2.3528 7.08334 3.10052 7.08334C3.84823 7.08334 4.45139 6.81416 4.88008 6.35805C5.30627 5.90444 5.55053 5.26141 5.55053 4.50373V2.57712C5.55053 1.20631 4.73053 0 3.09304 0ZM4.1523 4.54859C4.1523 5.08196 3.78343 5.85459 2.76903 5.85459C1.75463 5.85459 1.38576 5.08196 1.38576 4.54859V2.50982C1.38576 2.15092 1.62503 1.20631 2.76903 1.20631C3.33979 1.20631 3.68623 1.44059 3.8906 1.72473C4.09248 2.00387 4.1523 2.33037 4.1523 2.50982V4.54859Z" fill="#F7552F"/>
</svg>
