<svg width="6" height="8" viewBox="0 0 6 8" fill="none" xmlns="http://www.w3.org/2000/svg">
<path d="M4.20452 1.99078L5.21144 1.46489C5.21144 1.46489 5.28871 1.42501 5.23637 1.3278C5.18403 1.2306 4.65066 -0.0554647 2.62435 0.00185997C0.598051 0.0591847 -0.000119743 1.60695 -0.000119743 2.36713V4.49811C-0.000119743 4.49811 -0.124739 6.94812 2.63183 7.07772C2.63183 7.07772 4.58087 7.22726 5.2563 5.72685C5.2563 5.72685 5.29618 5.64959 5.21643 5.60971L4.13723 5.07136C4.13723 5.07136 4.05996 5.03148 4.01261 5.1237C3.96027 5.2209 3.69358 5.85895 2.76393 5.85895C1.83427 5.85895 1.38066 5.1885 1.38066 4.56042V2.51916C1.38066 2.51916 1.38813 1.22063 2.76393 1.22063C3.63377 1.22063 3.91291 1.75899 4.01759 1.96835C4.02507 1.98828 4.04999 2.07801 4.19954 1.99327L4.20452 1.99078Z" fill="#935227"/>
</svg>
