<svg width="72" height="38" viewBox="0 0 72 38" fill="none" xmlns="http://www.w3.org/2000/svg">
<mask id="path-1-outside-1_337_2149" maskUnits="userSpaceOnUse" x="-0.507812" y="-0.507568" width="73" height="39" fill="black">
<rect fill="white" x="-0.507812" y="-0.507568" width="73" height="39"/>
<path d="M55.3832 7.12721C55.3697 11.7622 58.3552 17.3246 67.1709 19.066C67.5883 19.1485 67.8182 19.6084 67.6203 19.985L65.2773 24.4452C58.6162 23.2221 54.2963 19.9281 51.9969 15.6889C49.6418 19.8864 45.3079 23.2082 38.7165 24.4452L36.0549 19.2192C45.3079 17.6348 48.5688 11.7972 48.5967 7.12721V5.2624C48.5967 4.91828 48.8757 4.63931 49.2198 4.63931H54.7601C55.1042 4.63931 55.3832 4.91828 55.3832 5.2624V7.12721ZM35.5811 34.8972V29.7407H68.2496C68.5937 29.7407 68.8726 30.0196 68.8726 30.3638V34.2741C68.8726 34.6182 68.5937 34.8972 68.2496 34.8972H35.5811Z"/>
<path d="M30.4567 2.69348C30.8008 2.69348 31.0798 2.97245 31.0798 3.31658V11.2413H35.6087V16.3144H31.0798V24.4452H24.7252V3.31658C24.7252 2.97245 25.0042 2.69348 25.3483 2.69348H30.4567ZM2.69343 22.9441V5.63769C2.69343 5.29356 2.9724 5.01459 3.31653 5.01459H8.34125C8.68538 5.01459 8.96434 5.29356 8.96434 5.63769V9.26765H14.427V5.63769C14.427 5.29356 14.706 5.01459 15.0501 5.01459H20.1306C20.4747 5.01459 20.7537 5.29356 20.7537 5.63769V22.9441H2.69343ZM6.12153 30.8109V25.8351H31.0798V34.6913C31.0798 35.0354 30.8008 35.3144 30.4567 35.3144H25.3483C25.0042 35.3144 24.7252 35.0354 24.7252 34.6913V30.8109H6.12153ZM8.96434 18.01H14.427V14.1045H8.96434V18.01Z"/>
<path d="M68.4519 29.5401C68.796 29.5401 69.075 29.8191 69.075 30.1632V34.4751C69.075 34.8192 68.796 35.0982 68.4519 35.0982H35.3787V29.5401H68.4519ZM35.7826 34.6953H68.048C68.3921 34.6953 68.671 34.4163 68.671 34.0722V30.5641C68.671 30.22 68.3921 29.941 68.0479 29.941H35.7826V34.6953ZM55.1807 5.46416C55.1807 5.12004 54.9017 4.84107 54.5576 4.84107H49.4212C49.077 4.84107 48.7981 5.12004 48.7981 5.46416V7.12878C48.7838 9.5092 47.9461 12.1839 45.9368 14.4636C43.965 16.7007 40.8745 18.5435 36.356 19.3672L38.8251 24.2159C45.2815 22.9673 49.5154 19.6989 51.8209 15.5898L52.0002 15.2714L52.1736 15.5937C54.4233 19.7413 58.6421 22.9811 65.1674 24.2159L67.3173 20.1246C67.514 19.7504 67.2887 19.2932 66.8748 19.2069C62.7102 18.3386 59.8452 16.6124 57.9927 14.5206C55.98 12.2478 55.1736 9.56168 55.1807 7.12681V5.46416ZM55.5846 7.12878C55.578 9.47472 56.3551 12.0635 58.2961 14.2553C60.2367 16.4461 63.3539 18.256 68.0543 19.0213C68.1898 19.0426 68.2651 19.1904 68.2021 19.3122L65.4551 24.5382L65.3861 24.6699L65.2403 24.6423C58.6865 23.4388 54.3658 20.2371 51.9943 16.085C49.571 20.1965 45.2403 23.425 38.7542 24.6423L38.6044 24.6718L38.5374 24.5362L35.7511 19.0665L36.021 19.0213C40.609 18.2357 43.6932 16.3993 45.6334 14.1983C47.4532 12.1336 48.2752 9.73695 48.3823 7.5592L48.3941 7.12681V5.06126C48.3941 4.71713 48.6731 4.43817 49.0172 4.43817H54.9616C55.3057 4.43817 55.5846 4.71713 55.5846 5.06126V7.12878Z"/>
<path d="M31.2819 25.6329V34.8933C31.2819 35.2375 31.0029 35.5164 30.6588 35.5164H25.146C24.8019 35.5164 24.5229 35.2375 24.5229 34.8933V31.0122H5.91897V25.6329H31.2819ZM6.32293 30.6093H24.9269V34.4904C24.9269 34.8346 25.2058 35.1135 25.55 35.1135H30.2548C30.599 35.1135 30.8779 34.8346 30.8779 34.4904V26.0358H6.32293V30.6093ZM30.6588 2.49243C31.0029 2.49243 31.2819 2.7714 31.2819 3.11553V11.0399H35.8102V16.5155H31.2819V24.6463H24.5229V3.11553C24.5229 2.7714 24.8019 2.49243 25.146 2.49243H30.6588ZM24.9269 24.2434H30.8779V16.1126H35.4062V11.4428H30.8779V3.51843C30.8779 3.17431 30.599 2.89534 30.2548 2.89534H25.55C25.2058 2.89534 24.9269 3.1743 24.9269 3.51843V24.2434ZM8.54334 4.81355C8.88746 4.81355 9.16643 5.09252 9.16643 5.43665V9.06665H14.2248V5.43665C14.2248 5.09252 14.5038 4.81355 14.8479 4.81355H20.3331C20.6773 4.81355 20.9562 5.09252 20.9562 5.43665V23.1447H2.49219V5.43665C2.49219 5.09252 2.77116 4.81355 3.11528 4.81355H8.54334ZM2.89615 22.7438H20.5523V5.83955C20.5523 5.49543 20.2733 5.21646 19.9292 5.21646H15.2519C14.9078 5.21646 14.6288 5.49543 14.6288 5.83955V9.46956H8.76247V5.83955C8.76247 5.49543 8.4835 5.21646 8.13937 5.21646H3.51924C3.17512 5.21646 2.89615 5.49543 2.89615 5.83955V22.7438ZM14.6288 13.9035V18.2116H8.76247V13.9035H14.6288ZM9.16643 17.8087H14.2248V14.3064H9.16643V17.8087Z"/>
</mask>
<path d="M55.3832 7.12721C55.3697 11.7622 58.3552 17.3246 67.1709 19.066C67.5883 19.1485 67.8182 19.6084 67.6203 19.985L65.2773 24.4452C58.6162 23.2221 54.2963 19.9281 51.9969 15.6889C49.6418 19.8864 45.3079 23.2082 38.7165 24.4452L36.0549 19.2192C45.3079 17.6348 48.5688 11.7972 48.5967 7.12721V5.2624C48.5967 4.91828 48.8757 4.63931 49.2198 4.63931H54.7601C55.1042 4.63931 55.3832 4.91828 55.3832 5.2624V7.12721ZM35.5811 34.8972V29.7407H68.2496C68.5937 29.7407 68.8726 30.0196 68.8726 30.3638V34.2741C68.8726 34.6182 68.5937 34.8972 68.2496 34.8972H35.5811Z" fill="white"/>
<path d="M30.4567 2.69348C30.8008 2.69348 31.0798 2.97245 31.0798 3.31658V11.2413H35.6087V16.3144H31.0798V24.4452H24.7252V3.31658C24.7252 2.97245 25.0042 2.69348 25.3483 2.69348H30.4567ZM2.69343 22.9441V5.63769C2.69343 5.29356 2.9724 5.01459 3.31653 5.01459H8.34125C8.68538 5.01459 8.96434 5.29356 8.96434 5.63769V9.26765H14.427V5.63769C14.427 5.29356 14.706 5.01459 15.0501 5.01459H20.1306C20.4747 5.01459 20.7537 5.29356 20.7537 5.63769V22.9441H2.69343ZM6.12153 30.8109V25.8351H31.0798V34.6913C31.0798 35.0354 30.8008 35.3144 30.4567 35.3144H25.3483C25.0042 35.3144 24.7252 35.0354 24.7252 34.6913V30.8109H6.12153ZM8.96434 18.01H14.427V14.1045H8.96434V18.01Z" fill="white"/>
<path d="M68.4519 29.5401C68.796 29.5401 69.075 29.8191 69.075 30.1632V34.4751C69.075 34.8192 68.796 35.0982 68.4519 35.0982H35.3787V29.5401H68.4519ZM35.7826 34.6953H68.048C68.3921 34.6953 68.671 34.4163 68.671 34.0722V30.5641C68.671 30.22 68.3921 29.941 68.0479 29.941H35.7826V34.6953ZM55.1807 5.46416C55.1807 5.12004 54.9017 4.84107 54.5576 4.84107H49.4212C49.077 4.84107 48.7981 5.12004 48.7981 5.46416V7.12878C48.7838 9.5092 47.9461 12.1839 45.9368 14.4636C43.965 16.7007 40.8745 18.5435 36.356 19.3672L38.8251 24.2159C45.2815 22.9673 49.5154 19.6989 51.8209 15.5898L52.0002 15.2714L52.1736 15.5937C54.4233 19.7413 58.6421 22.9811 65.1674 24.2159L67.3173 20.1246C67.514 19.7504 67.2887 19.2932 66.8748 19.2069C62.7102 18.3386 59.8452 16.6124 57.9927 14.5206C55.98 12.2478 55.1736 9.56168 55.1807 7.12681V5.46416ZM55.5846 7.12878C55.578 9.47472 56.3551 12.0635 58.2961 14.2553C60.2367 16.4461 63.3539 18.256 68.0543 19.0213C68.1898 19.0426 68.2651 19.1904 68.2021 19.3122L65.4551 24.5382L65.3861 24.6699L65.2403 24.6423C58.6865 23.4388 54.3658 20.2371 51.9943 16.085C49.571 20.1965 45.2403 23.425 38.7542 24.6423L38.6044 24.6718L38.5374 24.5362L35.7511 19.0665L36.021 19.0213C40.609 18.2357 43.6932 16.3993 45.6334 14.1983C47.4532 12.1336 48.2752 9.73695 48.3823 7.5592L48.3941 7.12681V5.06126C48.3941 4.71713 48.6731 4.43817 49.0172 4.43817H54.9616C55.3057 4.43817 55.5846 4.71713 55.5846 5.06126V7.12878Z" fill="white"/>
<path d="M31.2819 25.6329V34.8933C31.2819 35.2375 31.0029 35.5164 30.6588 35.5164H25.146C24.8019 35.5164 24.5229 35.2375 24.5229 34.8933V31.0122H5.91897V25.6329H31.2819ZM6.32293 30.6093H24.9269V34.4904C24.9269 34.8346 25.2058 35.1135 25.55 35.1135H30.2548C30.599 35.1135 30.8779 34.8346 30.8779 34.4904V26.0358H6.32293V30.6093ZM30.6588 2.49243C31.0029 2.49243 31.2819 2.7714 31.2819 3.11553V11.0399H35.8102V16.5155H31.2819V24.6463H24.5229V3.11553C24.5229 2.7714 24.8019 2.49243 25.146 2.49243H30.6588ZM24.9269 24.2434H30.8779V16.1126H35.4062V11.4428H30.8779V3.51843C30.8779 3.17431 30.599 2.89534 30.2548 2.89534H25.55C25.2058 2.89534 24.9269 3.1743 24.9269 3.51843V24.2434ZM8.54334 4.81355C8.88746 4.81355 9.16643 5.09252 9.16643 5.43665V9.06665H14.2248V5.43665C14.2248 5.09252 14.5038 4.81355 14.8479 4.81355H20.3331C20.6773 4.81355 20.9562 5.09252 20.9562 5.43665V23.1447H2.49219V5.43665C2.49219 5.09252 2.77116 4.81355 3.11528 4.81355H8.54334ZM2.89615 22.7438H20.5523V5.83955C20.5523 5.49543 20.2733 5.21646 19.9292 5.21646H15.2519C14.9078 5.21646 14.6288 5.49543 14.6288 5.83955V9.46956H8.76247V5.83955C8.76247 5.49543 8.4835 5.21646 8.13937 5.21646H3.51924C3.17512 5.21646 2.89615 5.49543 2.89615 5.83955V22.7438ZM14.6288 13.9035V18.2116H8.76247V13.9035H14.6288ZM9.16643 17.8087H14.2248V14.3064H9.16643V17.8087Z" fill="white"/>
<path d="M55.3832 7.12721C55.3697 11.7622 58.3552 17.3246 67.1709 19.066C67.5883 19.1485 67.8182 19.6084 67.6203 19.985L65.2773 24.4452C58.6162 23.2221 54.2963 19.9281 51.9969 15.6889C49.6418 19.8864 45.3079 23.2082 38.7165 24.4452L36.0549 19.2192C45.3079 17.6348 48.5688 11.7972 48.5967 7.12721V5.2624C48.5967 4.91828 48.8757 4.63931 49.2198 4.63931H54.7601C55.1042 4.63931 55.3832 4.91828 55.3832 5.2624V7.12721ZM35.5811 34.8972V29.7407H68.2496C68.5937 29.7407 68.8726 30.0196 68.8726 30.3638V34.2741C68.8726 34.6182 68.5937 34.8972 68.2496 34.8972H35.5811Z" stroke="black" stroke-width="4.98476" mask="url(#path-1-outside-1_337_2149)"/>
<path d="M30.4567 2.69348C30.8008 2.69348 31.0798 2.97245 31.0798 3.31658V11.2413H35.6087V16.3144H31.0798V24.4452H24.7252V3.31658C24.7252 2.97245 25.0042 2.69348 25.3483 2.69348H30.4567ZM2.69343 22.9441V5.63769C2.69343 5.29356 2.9724 5.01459 3.31653 5.01459H8.34125C8.68538 5.01459 8.96434 5.29356 8.96434 5.63769V9.26765H14.427V5.63769C14.427 5.29356 14.706 5.01459 15.0501 5.01459H20.1306C20.4747 5.01459 20.7537 5.29356 20.7537 5.63769V22.9441H2.69343ZM6.12153 30.8109V25.8351H31.0798V34.6913C31.0798 35.0354 30.8008 35.3144 30.4567 35.3144H25.3483C25.0042 35.3144 24.7252 35.0354 24.7252 34.6913V30.8109H6.12153ZM8.96434 18.01H14.427V14.1045H8.96434V18.01Z" stroke="black" stroke-width="4.98476" mask="url(#path-1-outside-1_337_2149)"/>
<path d="M68.4519 29.5401C68.796 29.5401 69.075 29.8191 69.075 30.1632V34.4751C69.075 34.8192 68.796 35.0982 68.4519 35.0982H35.3787V29.5401H68.4519ZM35.7826 34.6953H68.048C68.3921 34.6953 68.671 34.4163 68.671 34.0722V30.5641C68.671 30.22 68.3921 29.941 68.0479 29.941H35.7826V34.6953ZM55.1807 5.46416C55.1807 5.12004 54.9017 4.84107 54.5576 4.84107H49.4212C49.077 4.84107 48.7981 5.12004 48.7981 5.46416V7.12878C48.7838 9.5092 47.9461 12.1839 45.9368 14.4636C43.965 16.7007 40.8745 18.5435 36.356 19.3672L38.8251 24.2159C45.2815 22.9673 49.5154 19.6989 51.8209 15.5898L52.0002 15.2714L52.1736 15.5937C54.4233 19.7413 58.6421 22.9811 65.1674 24.2159L67.3173 20.1246C67.514 19.7504 67.2887 19.2932 66.8748 19.2069C62.7102 18.3386 59.8452 16.6124 57.9927 14.5206C55.98 12.2478 55.1736 9.56168 55.1807 7.12681V5.46416ZM55.5846 7.12878C55.578 9.47472 56.3551 12.0635 58.2961 14.2553C60.2367 16.4461 63.3539 18.256 68.0543 19.0213C68.1898 19.0426 68.2651 19.1904 68.2021 19.3122L65.4551 24.5382L65.3861 24.6699L65.2403 24.6423C58.6865 23.4388 54.3658 20.2371 51.9943 16.085C49.571 20.1965 45.2403 23.425 38.7542 24.6423L38.6044 24.6718L38.5374 24.5362L35.7511 19.0665L36.021 19.0213C40.609 18.2357 43.6932 16.3993 45.6334 14.1983C47.4532 12.1336 48.2752 9.73695 48.3823 7.5592L48.3941 7.12681V5.06126C48.3941 4.71713 48.6731 4.43817 49.0172 4.43817H54.9616C55.3057 4.43817 55.5846 4.71713 55.5846 5.06126V7.12878Z" stroke="black" stroke-width="4.98476" mask="url(#path-1-outside-1_337_2149)"/>
<path d="M31.2819 25.6329V34.8933C31.2819 35.2375 31.0029 35.5164 30.6588 35.5164H25.146C24.8019 35.5164 24.5229 35.2375 24.5229 34.8933V31.0122H5.91897V25.6329H31.2819ZM6.32293 30.6093H24.9269V34.4904C24.9269 34.8346 25.2058 35.1135 25.55 35.1135H30.2548C30.599 35.1135 30.8779 34.8346 30.8779 34.4904V26.0358H6.32293V30.6093ZM30.6588 2.49243C31.0029 2.49243 31.2819 2.7714 31.2819 3.11553V11.0399H35.8102V16.5155H31.2819V24.6463H24.5229V3.11553C24.5229 2.7714 24.8019 2.49243 25.146 2.49243H30.6588ZM24.9269 24.2434H30.8779V16.1126H35.4062V11.4428H30.8779V3.51843C30.8779 3.17431 30.599 2.89534 30.2548 2.89534H25.55C25.2058 2.89534 24.9269 3.1743 24.9269 3.51843V24.2434ZM8.54334 4.81355C8.88746 4.81355 9.16643 5.09252 9.16643 5.43665V9.06665H14.2248V5.43665C14.2248 5.09252 14.5038 4.81355 14.8479 4.81355H20.3331C20.6773 4.81355 20.9562 5.09252 20.9562 5.43665V23.1447H2.49219V5.43665C2.49219 5.09252 2.77116 4.81355 3.11528 4.81355H8.54334ZM2.89615 22.7438H20.5523V5.83955C20.5523 5.49543 20.2733 5.21646 19.9292 5.21646H15.2519C14.9078 5.21646 14.6288 5.49543 14.6288 5.83955V9.46956H8.76247V5.83955C8.76247 5.49543 8.4835 5.21646 8.13937 5.21646H3.51924C3.17512 5.21646 2.89615 5.49543 2.89615 5.83955V22.7438ZM14.6288 13.9035V18.2116H8.76247V13.9035H14.6288ZM9.16643 17.8087H14.2248V14.3064H9.16643V17.8087Z" stroke="black" stroke-width="4.98476" mask="url(#path-1-outside-1_337_2149)"/>
</svg>
